<?xml version="1.0" standalone="no"?>
<!DOCTYPE svg PUBLIC "-//W3C//DTD SVG 1.1//EN" "http://www.w3.org/Graphics/SVG/1.1/DTD/svg11.dtd" >
<svg xmlns="http://www.w3.org/2000/svg">
<metadata></metadata>
<defs>
<font id="masanascript1propia" horiz-adv-x="354" >
<font-face units-per-em="2048" ascent="1194" descent="-854" />
<missing-glyph horiz-adv-x="442" />
<glyph unicode="oe" horiz-adv-x="1075" d="M0 203q-1 85 50 146t132 75q66 13 129.5 -14t100.5 -82q60 -60 186 -60q0 84 53 166q58 90 139 85q63 -3 98 -57q43 -64 6 -139q-15 -31 -44 -59q-48 -48 -137 -76q28 -60 94 -87t141.5 -11t126.5 72q20 23 47 15.5t35 -31.5t-10 -50q-65 -71 -148.5 -96.5t-157.5 -8.5 t-135.5 65t-89.5 116h-6q-78 -3 -164 27q-3 -62 -36.5 -109t-82 -69.5t-105 -23.5t-105 20t-82 69.5t-35.5 116.5zM96 207q1 -43 28 -73.5t71 -41.5q55 -13 106 26t51 93q-2 54 -49 91.5t-102 27.5q-49 -9 -78 -43t-27 -80zM698 285q55 20 84 49q46 46 28 74q-13 21 -44 8 q-47 -20 -63 -96l-5 -33v-2z" />
<glyph unicode="&#xfb02;" horiz-adv-x="933" d="M-164 -80q2 20 16.5 33t34.5 12q10 -1 50.5 -3.5t60.5 -2.5h4q-13 562 -10 664q2 58 21.5 107.5t50.5 79t67.5 42.5t75 2t69.5 -45q48 -53 55 -134.5t-17 -163.5t-65.5 -166.5t-82.5 -145.5t-74 -97l4 -137q259 23 416 180q-56 83 -88.5 184t-32.5 183q0 45 5 96t19 112 t36 108.5t60.5 79.5t86.5 32q54 0 92 -40.5t54 -103.5t22 -111.5t6 -92.5q0 -262 -131 -449q58 -61 119 -61q45 0 95 23t79 57q14 14 35 14q20 0 34.5 -14.5t14.5 -34.5q0 -13 -14 -31q-44 -49 -111.5 -79.5t-132.5 -30.5q-100 0 -187 84q-177 -177 -473 -201q9 -313 9 -416 q0 -30 -24.5 -42t-48.5 0t-24 42q0 16 -8 410h-6q-57 0 -119 6q-20 0 -32.5 15t-10.5 36zM88 246l4 4q60 79 94.5 165.5t40 152t-1 112.5t-22.5 63q-4 5 -15.5 9t-27.5 2t-31 -12.5t-26.5 -41.5t-12.5 -79q-5 -167 -2 -375zM485 545q0 -179 90 -322q48 77 75.5 176.5 t27.5 196.5q0 85 -24 165.5t-58 80.5q-44 0 -84 -117q-27 -89 -27 -180z" />
<glyph horiz-adv-x="0" />
<glyph horiz-adv-x="0" />
<glyph horiz-adv-x="682" />
<glyph unicode="&#xd;" horiz-adv-x="442" />
<glyph unicode=" "  horiz-adv-x="442" />
<glyph unicode="&#x09;" horiz-adv-x="442" />
<glyph unicode="&#xa0;" horiz-adv-x="442" />
<glyph unicode="!" horiz-adv-x="299" d="M100 -36.5q-21 40.5 1 82t73 42.5q31 1 52 -15t25.5 -39t-0.5 -46.5t-26.5 -41.5t-52.5 -20q-51 -3 -72 37.5zM131 207q2 113 30.5 300.5t97 461.5t161.5 520q11 29 38 32t45 -17.5t7 -49.5q-132 -350 -205.5 -709.5t-77.5 -539.5q-1 -31 -25 -43t-47.5 1.5t-23.5 43.5z " />
<glyph unicode="&#x22;" horiz-adv-x="229" d="M4 713q-2 31 21.5 45t48.5 2t26 -43q0 -13 -4.5 -58.5t-5.5 -60.5q-2 -31 -19.5 -42t-35 -1.5t-19.5 27.5q-4 37 -10 77zM127 713q-2 31 21.5 45t48.5 2t26 -43q0 -13 -4.5 -58.5t-5.5 -60.5q-3 -31 -20.5 -42t-34.5 -2t-19 28q-8 66 -8 77z" />
<glyph unicode="#" horiz-adv-x="751" d="M12 399q11 25 41 25h140l30 113q-33 0 -65.5 0.5t-51.5 1t-20 0.5q-29 0 -39.5 23.5t3.5 48t46 26.5q72 0 154 -2q15 56 30 113.5t24 89.5t9 34q6 30 33 37t48.5 -10t13.5 -47l-58 -219l117 -2q14 56 27.5 114t21.5 91t8 34q7 28 32.5 34.5t46.5 -12t15 -50.5 q0 -1 -7 -30t-19 -80t-25 -103h111q30 1 43 -23.5t2 -49t-41 -24.5l-137 3l-29 -113q125 0 133 -2q28 0 38.5 -25t-3.5 -50.5t-47 -27.5q-3 0 -22 1t-53.5 2t-69.5 2q-57 -240 -58 -246q-6 -30 -32.5 -37.5t-48.5 8.5t-15 45l55 230l-125 2q-65 -242 -67 -248 q-8 -27 -33.5 -31t-45.5 16t-13 52q1 3 8 29.5t21.5 81t27.5 102.5h-109q-30 -1 -43 23.5t-2 49.5zM295 422h121l28 113h-120z" />
<glyph unicode="$" horiz-adv-x="915" d="M11 1093.5q9 74.5 54.5 139t126 117.5t185.5 82l6 133q1 30 25.5 41t48 -2t22.5 -43l-6 -109q27 3 51 6l2 137q1 30 25.5 41.5t48.5 -1t23 -42.5v-131q117 -3 239 -39q28 -9 33 -35t-13 -46t-46 -11q-116 32 -215 35l-11 -668q136 -68 196.5 -152t57.5 -190 q-3 -122 -73.5 -223t-192.5 -127l-2 -149q0 -30 -24.5 -41.5t-48.5 1t-23 42.5l2 141q-49 3 -90 14l-6 -114q-1 -30 -25.5 -41t-48.5 2t-23 43l8 149q-99 54 -156.5 138.5t-33.5 160.5q9 28 35 33t45.5 -13.5t11.5 -47.5q-7 -27 21 -74t82 -86l22 536q-122 46 -202 112 t-110 136.5t-21 145zM109 1086q-2 -76 59.5 -154t179.5 -129l25 532q-126 -35 -194 -104t-70 -145zM416 115q12 -4 20 -6q41 -11 68 -13l8 541q-10 4 -34.5 14t-39.5 17zM444 766q47 -15 70 -25l8 621q-9 -1 -26.5 -3t-26.5 -3zM600 109q79 25 122.5 94t45.5 155 q2 67 -33.5 124t-128.5 110z" />
<glyph unicode="%" horiz-adv-x="1101" d="M7 1149.5q-5 55.5 8 107t40 93.5t62 61q22 11 39.5 4.5t27.5 -24.5q47 11 88 6q72 -11 120 -51.5t64.5 -92.5t9 -109.5t-37 -104.5t-83 -76.5t-120.5 -26.5q-70 3 -119.5 34t-71.5 77.5t-27 102zM100 1199q-4 -41 7 -77.5t43 -62t81 -27.5q45 -2 80.5 22t49 61.5t11 76.5 t-33 70.5t-82.5 40.5q-27 3 -63 -13q-13 -23 -34.5 -25.5t-35.5 11.5q-19 -36 -23 -77zM246 -59q32 225 456 1491q9 29 35.5 30.5t44.5 -20.5t9 -51q-130 -391 -272 -855t-177 -604q-4 -18 -16 -29.5t-26 -13t-27.5 3t-21 17.5t-5.5 31zM592 344q8 61 46 121t93 82 q25 10 44 -3.5t22 -35.5q43 10 85 6t78 -28t61.5 -57t37 -81t4.5 -100q-15 -113 -116 -165q-90 -48 -192 -20q-104 28 -146 119q-32 70 -17 162zM683 289.5q3 -36.5 15.5 -67.5t45.5 -52t79 -23q86 -4 126.5 65.5t8.5 139t-120 64.5q-16 0 -35.5 -10t-30.5 -23 q-7 -30 -34 -35t-44 12q-14 -34 -11 -70.5z" />
<glyph unicode="&#x26;" horiz-adv-x="1601" d="M0 534.5q14 97.5 76 197.5t168 183q61 44 71 50q-41 35 -67.5 77t-36 83t-7.5 84t18 80.5t40.5 71.5t60 58t77 39t91 15t101.5 -13q78 -22 129 -87.5t53 -145.5q0 -30 -24 -43t-48 -0.5t-24 43.5q-2 99 -94.5 135.5t-186 -10.5t-98.5 -152q-3 -70 44 -127t87 -69 q28 -9 38 -29.5t-2.5 -39.5t-41.5 -24q-6 -2 -20.5 -8.5t-43.5 -24t-57 -40.5q-91 -71 -143.5 -155.5t-64 -165.5t7.5 -161.5t65 -147.5t115.5 -118.5t152.5 -80t182.5 -27t198.5 37.5q92 33 156.5 88.5t94.5 119t40.5 132.5t-3.5 134.5t-40 121t-66 94.5t-84 52 q-18 6 -47 6q-125 -3 -206.5 -88.5t-65.5 -175.5q5 -30 -17 -46.5t-48 -8t-31 39.5q-11 67 14 134.5t75 119.5t123 85.5t152 35.5q36 0 70 -6q73 -9 151 -11.5t173 5t164 43t87 96.5q4 30 29.5 39t48.5 -6t19 -45q-1 -16 -9 -38.5t-40.5 -60t-83.5 -66.5t-149.5 -49 t-227.5 -17q53 -65 83.5 -152t29 -184t-35 -188t-116.5 -170t-207 -124q-118 -42 -235.5 -43t-215 33.5t-179.5 98t-136 144.5t-76 177.5t-8 194z" />
<glyph unicode="'" horiz-adv-x="98" d="M4 713q-2 31 21.5 45t48.5 2t26 -43q0 -13 -4.5 -58.5t-5.5 -60.5q-2 -31 -19.5 -42t-35 -1.5t-19.5 27.5q-4 37 -10 77z" />
<glyph unicode="(" horiz-adv-x="440" d="M8 748q0 172 43 366t125 318q10 15 25 20t28 -0.5t24 -16t11.5 -26t-8.5 -31.5q-37 -58 -74 -164q-78 -222 -78 -466q0 -109 27 -232t65.5 -220.5t77.5 -179t66 -126.5l27 -45q9 -15 8.5 -30.5t-11.5 -26t-24 -15.5t-28 0t-25 21q-70 108 -140 268q-139 314 -139 586z " />
<glyph unicode=")" horiz-adv-x="323" d="M-49 -63.5q-2 15.5 6 32.5q63 106 129 260q127 314 127 537q0 155 -58.5 322.5t-160.5 275.5q-12 13 -13.5 29t7 28t21 19.5t28.5 5t29 -15.5q8 -8 27 -31.5t59 -88t73 -138t58.5 -184t25.5 -222.5q0 -188 -79.5 -424t-190.5 -422q-9 -16 -24 -21.5t-27.5 -1.5t-23.5 14 t-13 25.5z" />
<glyph unicode="*" horiz-adv-x="303" d="M0 644.5q-5 19.5 4.5 35t26 24t39.5 -3.5q2 -2 11.5 -7.5t14.5 -10.5q0 4 -1 19t-1 16q-5 35 27 50q31 15 54 -9q13 -15 15 -41q4 2 24 7t28 5q19 3 36 -11.5t18 -34.5t-24 -40q-2 -1 -18 -10.5t-27 -17t-18 -15.5l12 -10q12 -10 16 -14.5t11 -14.5t10 -20 q9 -29 -8.5 -47.5t-44 -14t-39.5 32.5q-3 8 -21 23q-11 -17 -16 -31q-5 -24 -28.5 -36.5t-45.5 -3.5t-22 40q0 28 35 80q-19 16 -43 30q-20 11 -25 30.5z" />
<glyph unicode="+" d="M-4 208q12 25 43 25l70 -2v80q-1 30 23.5 43t49.5 2t25 -41v-86q24 0 55.5 -1t32.5 -1q28 -1 38.5 -24t-3.5 -46.5t-47 -25.5q-41 0 -78 2v-74q-1 -29 -25.5 -39.5t-49 4t-26.5 46.5q0 34 2 65h-63q-31 -1 -45 23.5t-2 49.5z" />
<glyph unicode="," horiz-adv-x="210" d="M53.5 -82q-0.5 15 9.5 31q13 22 43 108q9 29 36.5 33t46.5 -16t10 -49q-11 -23 -21 -50q-12 -42 -35 -79q-10 -15 -25.5 -20t-28.5 0.5t-24 16t-11.5 25.5z" />
<glyph unicode="-" d="M6.5 244q-10.5 24 3.5 48t47 25q15 1 127.5 -1.5t114.5 -2.5q30 2 43 -21.5t2 -48t-41 -24.5h-258q-28 1 -38.5 25z" />
<glyph unicode="." horiz-adv-x="198" d="M90 22q-12 26 4.5 52t52.5 26q28 0 39 -26t-3.5 -52t-47.5 -26t-45 26z" />
<glyph unicode="/" horiz-adv-x="610" d="M10 -143q19 140 170 631t318 982q9 29 35.5 31.5t44 -19t6.5 -50.5q-128 -391 -286 -918.5t-192 -667.5q-8 -29 -33 -38.5t-46 5t-17 44.5z" />
<glyph unicode="0" horiz-adv-x="1013" d="M10.5 718q8.5 91 32 178t59.5 159q62 125 129 194q21 22 47 15t33 -30.5t-10 -49.5q-15 -14 -35 -43q-93 -127 -136 -278t-26 -304q26 -246 148.5 -365t310.5 -98q168 18 262 207q87 176 81 424q-5 239 -94 400q-93 168 -239 165q-36 0 -75 -12q-20 -5 -29 -12 q-25 -16 -50 -1.5t-27 39t22 42.5q6 4 18 10q69 35 182 28q167 -17 266 -180t115 -413q5 -102 -1.5 -199t-33.5 -202.5t-73 -186t-126.5 -137.5t-187.5 -68q-106 -11 -195.5 11.5t-152 72t-109 120.5t-71 154.5t-34 176t-1 183.5z" />
<glyph unicode="1" horiz-adv-x="378" d="M23.5 1211q1.5 27 29.5 40q20 8 65 31q116 58 155 59q45 1 42 -51l-57 -1243q-1 -30 -26 -41.5t-48.5 2.5t-21.5 45l53 1166l-123 -58q-28 -12 -49 5.5t-19.5 44.5z" />
<glyph unicode="2" horiz-adv-x="856" d="M-23 940q-4 85 22.5 150.5t73.5 103.5t106 61t121.5 27t118 -2.5t97.5 -22.5q90 -35 154 -103t95.5 -157.5t19.5 -199.5t-64 -224t-164.5 -237.5t-273.5 -233.5l462 -14q30 -1 42 -25.5t-1.5 -48t-44.5 -22.5l-618 18q-45 2 -53.5 34.5t30.5 55.5q165 96 285.5 200 t184.5 198t94.5 186t24 168.5t-34 141t-73 108.5t-100.5 65q-61 23 -132.5 22.5t-134.5 -24t-103.5 -81.5t-36.5 -140q4 -72 44 -120.5t97 -56t123 25.5q26 17 49.5 2t23 -40t-25.5 -44q-71 -42 -144 -42t-129 34t-93.5 96.5t-41.5 140.5z" />
<glyph unicode="3" horiz-adv-x="888" d="M24 435q22 51 68 83q50 35 82 2q24 -24 15 -55t-46 -29q-68 -62 -33 -166.5t145 -156t286 1.5q82 30 137.5 91t72.5 133t6 144.5t-62.5 133.5t-133.5 92q-91 32 -176 32q-28 -3 -47 19q-24 31 8 71l242 347l-326 -9q-30 -1 -42.5 23t-1 48.5t41.5 25.5l412 10 q42 0 53 -25q14 -26 -8 -59l-252 -361q120 -18 209 -75t132.5 -133t51.5 -166t-21 -172t-97.5 -152.5t-166.5 -107.5q-215 -81 -382 13q-113 63 -162 182q-48 118 -5 215z" />
<glyph unicode="4" horiz-adv-x="911" d="M55 455q-13 26 11 53l544 795q26 33 58 22q34 -8 34 -53q0 -5 -14 -766q24 2 73.5 7t74.5 7q30 4 44.5 -19t5 -48.5t-39.5 -28.5q-64 -6 -160 -12q-7 -341 -12 -377q-3 -30 -28 -39.5t-48 5t-20 44.5q5 36 12 361h-8q-329 -14 -482 18q-31 0 -45 31zM184 510 q173 -24 408 -10q1 69 6 299.5t6 320.5z" />
<glyph unicode="5" horiz-adv-x="757" d="M37 784l74 533q4 30 22 39q16 12 43 4q126 -41 488 -53q31 -1 43.5 -26t-1 -49t-44.5 -22q-90 1 -201 11q-161 11 -262 32l-56 -407q89 37 173.5 43.5t152 -13.5t122.5 -61.5t90 -97.5t49.5 -125t6 -141.5t-46 -149.5t-102.5 -145q-72 -76 -166 -120.5t-193 -43.5 q-30 1 -42 25.5t1.5 48t44.5 22.5q76 -1 154 37.5t135.5 104t92 142.5t28 161t-58.5 151q-57 72 -142 96t-167.5 7t-157.5 -62q-31 -16 -54 -8q-33 13 -26 67z" />
<glyph unicode="6" horiz-adv-x="983" d="M8 467q-23 249 97.5 497t328.5 398q24 17 48.5 4t27 -37.5t-20.5 -44.5q-9 -7 -24.5 -19t-59 -54.5t-82.5 -89t-85.5 -120t-77.5 -149.5t-48 -176t-8 -201q9 -95 39 -167.5t74.5 -116t94 -68t106.5 -33.5q76 -11 145.5 3t121.5 46.5t92 80t62.5 102.5t28 115t-7.5 116 t-47.5 107.5t-87.5 87.5q-102 67 -204.5 55.5t-181 -62.5t-110.5 -116q-13 -28 -39.5 -28.5t-43 21.5t-3.5 50q23 48 69.5 94t112 81t138 51t156.5 0.5t159 -67.5q69 -47 113.5 -112.5t61.5 -136.5t10.5 -146.5t-34.5 -144.5t-78 -129t-114.5 -101t-150.5 -58.5t-180 -4.5 q-74 11 -138.5 43.5t-120 87.5t-92.5 142.5t-47 199.5z" />
<glyph unicode="7" horiz-adv-x="729" d="M9 1352.5q-8 25.5 8 47.5t46 17l578 -96q32 -4 41 -27q13 -19 -2 -49q-16 -31 -48 -99.5t-86 -203t-102.5 -274t-91 -313.5t-57.5 -322q-3 -30 -28 -39.5t-48 5t-20 44.5q28 262 132 588.5t238 605.5l-522 84q-30 6 -38 31.5z" />
<glyph unicode="8" horiz-adv-x="1030" d="M4 434q0 123 62.5 226.5t166.5 158.5q-56 45 -86 117.5t-30 157.5q0 130 104 231.5t250 101.5q79 0 144.5 -28t106.5 -73.5t62 -105.5t18 -121.5t-32.5 -124t-83.5 -110.5q109 -38 193.5 -145t91.5 -219q13 -138 -44.5 -251t-162 -178t-234.5 -77q-129 -12 -251 45.5 t-198.5 164.5t-76.5 230zM100 434q0 -68 36 -134.5t93.5 -115t135.5 -75t157 -19.5q163 14 265.5 126t89.5 276q-7 81 -61.5 155.5t-128.5 111.5t-134 19q-17 -3 -31 0q-16 4 -28 29q-7 24 2 45q13 13 24 16v2q66 27 110.5 73t61.5 96.5t11.5 103.5t-32.5 95t-79 68.5 t-121 26.5q-105 0 -181.5 -74.5t-76.5 -164.5q0 -94 43 -156.5t113 -73.5q42 -6 45 -47q1 -20 -11 -34t-32 -17q-10 -1 -26.5 -5.5t-42.5 -16t-52.5 -28t-54 -43.5t-48 -59.5t-34 -79t-13.5 -100.5z" />
<glyph unicode="9" horiz-adv-x="983" d="M9 830.5q-24 146.5 33.5 279.5t176.5 203q82 47 182 55t205 -32.5t182 -127.5q144 -164 150 -442q4 -385 -146 -578t-421 -198q-86 0 -176.5 37t-149.5 98q-20 22 -11 47.5t33 31.5t50 -11q4 -7 14 -17q115 -90 238 -90q482 10 471 678q-3 239 -123 381 q-62 69 -146 101.5t-162.5 26t-140.5 -43.5q-93 -56 -138 -160.5t-26 -221t101 -198.5q59 -59 135.5 -79.5t143.5 -6.5t122 46.5t80 74.5q17 26 45 23.5t40 -24.5t-1 -50q-29 -45 -80.5 -84t-120 -61.5t-141.5 -26t-150.5 26.5t-140.5 92q-104 104 -128 250.5z" />
<glyph unicode=":" horiz-adv-x="215" d="M95.5 51q-1.5 16 7.5 29.5t21.5 23t29.5 8.5t32 -14q24 -22 15 -52t-36 -37.5t-56 14.5q-12 12 -13.5 28zM106.5 288q-12.5 26 3.5 52.5t52 26.5q29 0 40 -26.5t-3 -52.5t-47 -26t-45.5 26z" />
<glyph unicode=";" horiz-adv-x="206" d="M43.5 -74q-0.5 15 9.5 31q9 14 23.5 52t19.5 57q11 29 38.5 32.5t46 -16t7.5 -47.5q-8 -24 -18 -51q-21 -57 -37 -80q-10 -15 -25.5 -20t-28.5 0.5t-24 16t-11.5 25.5zM92 296q-9 33 17 56q17 15 43 15q28 0 38.5 -26.5t-4 -52.5t-47.5 -26q-38 0 -47 34z" />
<glyph unicode="&#x3c;" horiz-adv-x="325" d="M3 253q-5 27 26 52q9 6 204 123q25 17 50.5 3.5t27.5 -38.5t-22 -45q-78 -45 -144 -84q127 -64 154 -80q23 -16 23.5 -40t-23.5 -40t-53 -2q-10 4 -99.5 52t-109.5 57q-29 15 -34 42z" />
<glyph unicode="=" d="M-5.5 197.5q2.5 14.5 14.5 25t30 10.5q227 -6 256 -6q28 -1 38.5 -24t-3.5 -46.5t-47 -25.5q-1 0 -113.5 2.5t-126.5 1.5q-19 -1 -32 9t-16 24.5t-0.5 29zM6.5 322q-10.5 24 3.5 48.5t47 26.5q2 0 114.5 -2.5t127.5 -1.5q30 1 43 -23.5t2 -49.5t-41 -25q-229 2 -258 2 q-28 1 -38.5 25z" />
<glyph unicode="&#x3e;" horiz-adv-x="323" d="M-1.5 389q0.5 24 25 40t54.5 3q86 -48 207 -110q28 -12 33.5 -40.5t-25.5 -52.5q-10 -7 -103.5 -62.5t-103.5 -62.5q-25 -17 -49.5 -2.5t-26 39t22.5 43.5q78 47 141 84q-73 40 -154 80q-22 17 -21.5 41z" />
<glyph unicode="?" horiz-adv-x="753" d="M10 929q-57 160 50 346q4 7 8 13q94 156 261 202q153 43 296 -22q137 -62 196 -197q87 -198 -35 -466q-78 -169 -235 -350q-7 -8 -36 -41.5t-43.5 -52t-35.5 -48.5t-30.5 -57t-10.5 -51q-1 -19 -11 -31.5t-24.5 -14.5t-28.5 1t-23.5 16t-8.5 31q0 26 5 50.5t18.5 51 t22 43.5t32 46.5t31.5 39.5t36.5 43t32.5 37q87 98 148.5 192.5t101.5 219.5q30 92 30 171.5t-25 135t-67.5 95t-96 58t-113 19t-115.5 -18t-106.5 -57.5t-83.5 -94q-94 -157 -48 -282q31 -82 105 -113q78 -33 144 13q66 45 83 153q5 31 31.5 39.5t49 -8t15.5 -46.5 q-4 -18 -12 -47q-48 -156 -166 -200q-100 -39 -203 17q-100 54 -139 164zM268 -46.5q-21 39.5 1 81t73 43.5q31 1 52 -15t25.5 -39t-0.5 -46.5t-26.5 -40.5t-52.5 -19q-51 -4 -72 35.5z" />
<glyph unicode="@" horiz-adv-x="729" d="M4.5 300q-13.5 99 21 180t103 143t152 87.5t178 2t170.5 -102.5q105 -108 94 -240q-7 -96 -69 -150q-62 -55 -132 -22q-24 12 -45 33l-2 -2q-37 -35 -88.5 -46.5t-102.5 6.5t-81 63q-37 61 -26 122.5t59 106.5q50 47 113.5 53.5t123.5 -38.5q40 -31 53.5 -80.5 t-0.5 -93.5l2 -3q34 -53 66 -26q32 25 31 92q-1 91 -66 158q-56 58 -126 75.5t-131 -2t-111.5 -65.5t-75.5 -106.5t-14.5 -133.5t63.5 -139q43 -54 116 -76.5t148.5 -11t134.5 50.5q16 9 31.5 8.5t26 -11.5t16 -24t0.5 -28.5t-21 -26.5q-74 -48 -170 -63.5t-195.5 15 t-160.5 108.5q-72 88 -85.5 187zM272 358q-5 -30 11 -53q18 -27 57 -30t70 24q27 27 27 64.5t-25 58.5q-21 19 -52 16.5t-57 -26.5t-31 -54z" />
<glyph unicode="A" horiz-adv-x="1263" d="M2 674v12q0 160 54 300q56 146 149 249.5t219 171.5t260 88q52 8 105 7q85 0 171 -18q142 -32 261 -116q88 -64 127 -131q6 -13 6 -25v-6q-2 -16 -13.5 -25.5t-25 -13.5t-28 2.5t-23.5 22.5q-7 11 -23 27q-78 90 -202.5 134.5t-260.5 47.5h-20q-92 -1 -177 -25 q-94 -28 -168 -78t-134.5 -120t-100.5 -152t-61 -172t-21 -180q2 -153 57 -287.5t154.5 -217.5t218.5 -83q166 0 289.5 106.5t206.5 280.5q-18 182 -18 333q0 50 2 97q0 287 116 287q120 0 120 -202q0 -49 -7 -109q-28 -226 -111 -420q25 -284 50 -422q3 -19 -5 -33t-22 -20 q-13 -5 -26 -5q-1 1 -3 1q-14 0 -26 11t-15 29q-19 117 -39 283q-100 -153 -232.5 -233t-279.5 -80q-118 0 -219 61t-166 159t-101.5 219t-37.5 245zM1104 711q21 81 35 180q3 21 6 55q2 17 1 38q0 20 -1 46q-3 52 -19 64q-28 -42 -28 -208q0 -75 6 -175z" />
<glyph unicode="B" horiz-adv-x="1064" d="M10 994v20q0 62 14 122q16 70 60.5 143t116.5 136q57 50 135 83t166 43q46 5 92 5q42 0 86 -4q90 -9 174.5 -45.5t154 -92t118 -143.5t63.5 -196q6 -45 6 -88q0 -133 -58 -251q-77 -156 -235 -214q51 -60 76 -124q24 -60 23 -114v-6q-2 -56 -22.5 -106.5t-58 -89 t-88 -63.5t-107.5 -33q-20 -3 -41 -2q-39 0 -80 9q-64 14 -124 50l-4 -115q-1 -30 -25 -42q-12 -6 -23 -6q-13 0 -25 8q-24 14 -23 44l6 182q-36 34 -80 95q-18 25 -5 49.5t38 27t45 -19.5l6 -8l23 815q1 31 25.5 43t48 -2t22.5 -45l-25 -912q65 -53 137 -69q36 -8 68 -8 t60 8q58 16 98 58q42 40 54 96q4 17 3 36q1 42 -19 90q-28 70 -100 138q-24 15 -22 44t27 40q11 5 34 11t31 9q142 52 201 172q43 87 43 196q0 41 -6 85q-14 101 -65.5 181t-123.5 127t-160 71q-77 21 -153 21q-11 -1 -22 -1q-87 -4 -168 -31.5t-138 -77.5 q-81 -71 -120 -158q-38 -85 -38 -161q0 -78 24 -160q24 -78 56 -133.5t68 -97.5q19 -23 8.5 -49t-35 -31t-47.5 16q-26 30 -53 71t-53 99.5t-44 120.5t-20 134z" />
<glyph unicode="C" horiz-adv-x="1204" d="M2 653q-9 62 -9 123q-1 87 17 174q30 149 101 271.5t192.5 206.5t271.5 100q32 4 67 3q64 1 134 -11q110 -18 148 -45q15 -11 18.5 -27t-2.5 -29.5t-17 -23.5t-26.5 -10t-30.5 10q-18 14 -109 30q-58 10 -111 10q-30 0 -58 -3q-103 -11 -188.5 -56t-143 -113.5 t-96.5 -155.5q-38 -87 -54 -183q-12 -72 -12 -146q0 -24 1 -49q5 -100 30 -193t72 -175.5t110 -143.5t150 -97q85 -35 181 -34h5q95 1 174.5 28.5t127 67.5t74.5 79.5t32 72.5q4 22 21.5 32.5t35.5 7.5q17 -2 30 -18q10 -12 10 -29q0 -5 -1 -10q-23 -137 -160 -229 q-143 -95 -331 -95q-223 0 -390 137q-214 175 -264 523z" />
<glyph unicode="D" horiz-adv-x="1394" d="M10 1298q6 7 24 24t68 49t112 58q62 25 162 45q96 19 201 19h11q153 -1 280.5 -48.5t214 -126t146 -183.5t83.5 -219q20 -94 20 -192v-44q-6 -120 -41.5 -228t-103 -202t-159.5 -154q-100 -66 -259 -97q-115 -22 -224 -22q-42 0 -84 3q-73 6 -136.5 25.5t-118.5 53.5 q-55 35 -81 91q-17 37 -17 80q0 24 5 49q3 18 15 28.5t26.5 10.5t28 -6t20.5 -20t4 -32q-2 -13 -3 -25q0 -58 56 -98q67 -49 209 -61q53 -4 102 -4q294 0 471 157q190 169 190 499q0 29 -1 58q-15 287 -191.5 448t-451.5 163q-134 0 -282.5 -40t-223.5 -122q-13 -13 -29 -16 t-28.5 4.5t-20.5 18.5q-7 9 -8 22q0 19 14 34zM336 1280q-2 30 22 43q13 7 26 7q10 0 22 -5q24 -11 26 -41l39 -1100q1 -18 -8.5 -31t-23.5 -16q-8 -2 -17 -2q-6 0 -12 1q-14 2 -24 14.5t-11 31.5z" />
<glyph unicode="E" horiz-adv-x="712" d="M0 492q0 155 68.5 289t199.5 200q-17 57 -17 110q0 48 14 93q30 95 97 164q66 70 164 106q82 31 167 30q16 0 32 -1q22 -2 34 -18t11 -34t-15.5 -32t-37.5 -13q-19 1 -37 1q-153 0 -240 -97q-78 -87 -77 -208q0 -30 4 -62q3 -23 8.5 -43t7 -28t3.5 -14.5t-5 -10t-14 -7.5 t-29.5 -15t-46.5 -25q-195 -111 -195 -383q0 -184 112.5 -308.5t264.5 -126.5h7q52 1 122 29q75 30 111 70q20 23 48.5 17.5t37.5 -27.5q3 -8 3 -16q0 -15 -11 -32q-3 -4 -7 -8q-43 -45 -96.5 -74t-103.5 -39.5t-73 -13t-42 -2.5h-14q-74 0 -143 29q-75 32 -130.5 86.5 t-97 124.5t-62.5 144.5t-22 144.5z" />
<glyph unicode="F" horiz-adv-x="1181" d="M1 1256q-2 11 -2 23q1 41 23 83q28 54 93 84q39 20 95 24q29 2 58 2q26 0 50 -2q52 -4 128 -16q321 -56 494 -76q29 29 88 70q130 80 236 80q36 0 70 -9q77 -21 103 -82q10 -23 10 -44q0 -35 -27 -65q-29 -31 -79 -46q-58 -17 -164 -17q-85 0 -202 11 q-114 -129 -133 -402q34 3 66 3q43 0 83 -5q30 -3 38.5 -27.5t-8 -47.5t-48.5 -21q-15 1 -35 1q-40 0 -98 -3q-1 -37 -1 -96v-97t-2 -93.5t-6.5 -93t-13.5 -86.5t-22 -85t-34 -76.5t-47.5 -72t-64 -62.5t-82.5 -55q-62 -33 -128 -47q-58 -12 -111 -12h-16q-60 2 -132 6 q-16 1 -24 2q-30 2 -40.5 27t3 48.5t43.5 20.5q8 -1 41.5 -3t43 -2.5t38.5 -1.5t41.5 0t37.5 2.5t40.5 5t37.5 9t41 13.5t39 18q36 19 65.5 44.5t51 51t38 62t27.5 66t18.5 74t11.5 76t6 83.5t2 83t0.5 88t0.5 87q-73 -7 -192 -45q-29 -9 -48.5 10t-15.5 45.5t33 34.5 q130 44 228 59q5 132 30.5 237t85.5 191q-69 10 -175.5 28t-176.5 29t-147 20q-66 8 -113 8q-8 -1 -16 -1q-52 -2 -78 -14q-33 -16 -48 -42t-12 -51t17 -45t35 -26q29 -9 34 -36t-13.5 -47t-47.5 -11q-48 15 -81 58.5t-41 95.5zM1081 1366q61 -4 108 -3q85 0 126 11 q23 7 27 15q1 3 1 7q0 7 -4 19q-17 14 -48 14q-14 -1 -31 -3q-55 -10 -104.5 -27.5t-74.5 -32.5z" />
<glyph unicode="G" horiz-adv-x="1179" d="M6 538q-5 46 -5 93q0 85 18 176q28 141 98 264q78 136 186.5 241.5t243.5 169.5t283 66h6q145 0 299 -71q152 -73 224.5 -198.5t72.5 -279.5q0 -30 -24 -42.5t-48 -1t-25 41.5q-3 115 -63.5 209.5t-155 150.5t-216.5 69q-36 4 -72 4l-174 -23q-122 -33 -243.5 -131.5 t-209.5 -251.5q-81 -143 -99 -302q-5 -51 -5 -100q0 -99 24 -183q36 -125 108 -215t162 -111q69 -17 136 -17q143 0 270 80q9 104 26 195q1 7 4 27q80 569 258 569q19 0 39 -6q59 -18 85 -86q18 -46 18 -105q0 -28 -5 -59q-12 -96 -51 -201t-114 -208.5t-170 -174.5 q-34 -295 -34 -624q0 -109 4 -223q15 -452 89 -822q7 -30 -16 -48q-15 -12 -33 -12q-7 0 -15 2q-26 8 -30 39q-47 237 -74 596q-21 256 -21 501q0 269 25 525q-127 -62 -265 -62q-71 0 -146 17q-98 23 -177.5 98.5t-125.5 186t-62 237.5zM905 268q114 119 180 291 q9 25 19.5 65.5t21.5 95.5q7 35 7 65q0 17 -3 33q-6 42 -32 50q-4 1 -9 1q-18 0 -35 -21q-23 -28 -42.5 -87.5t-34.5 -111.5t-29.5 -128.5t-18.5 -100.5t-11 -64q-2 -12 -6.5 -41.5t-6.5 -46.5z" />
<glyph unicode="H" horiz-adv-x="1210" d="M0 659q6 47 41 81t78.5 49.5t93.5 19.5l59 637q2 30 27 40t48.5 -4t21.5 -44q-29 -308 -62 -637q122 -26 275 -152q218 55 440 133q21 615 172 779q15 16 33 16q7 0 14 -2q27 -8 34.5 -31.5t-11.5 -48.5q-120 -130 -144 -678q188 70 389 156q28 13 49 -5q20 -16 20 -41 q0 -30 -30 -42q-190 -80 -432 -168q-3 -85 -3 -187q0 -205 11 -483q3 -7 -2 -27q-5 -16 -28 -28q-24 -7 -41 4q-14 7 -19 20q-88 120 -217 268.5t-256 258.5q-194 -43 -285 -49q-46 -455 -59 -496q-11 -28 -38 -32q-4 -1 -8 -1q-22 1 -37 17q-18 20 -9 47q11 31 55 465 q-94 8 -142 46q-40 32 -40 93q0 12 2 26zM98 621q18 -26 92 -31q1 17 11 121q-57 -9 -89 -37q-21 -18 -22 -34q1 -10 8 -19zM287 592q54 5 176 29q-94 67 -164 84q-2 -18 -6 -56.5t-6 -56.5zM672 571q185 -168 350 -383q-5 211 -5 368q0 68 1 126q-119 -39 -234 -76 q-10 -3 -112 -35z" />
<glyph unicode="I" horiz-adv-x="1191" d="M4 82q7 72 72 129q133 113 419 113h15q219 -3 401 -113q153 220 153 568q0 33 -1 67q-4 105 -24 192t-49.5 143t-65.5 93q-38 36 -74 50q-25 9 -49 9q-11 0 -21 -2q-38 -8 -71.5 -49t-55.5 -103q-22 -61 -25 -143v-24q0 -70 15 -142q18 -84 71 -174t136 -164 q13 -12 16 -28t-4.5 -28.5t-19.5 -21t-28 -7.5t-30 14q-85 76 -144 176q-58 101 -84 201q-25 97 -25 193v8q1 101 27.5 181t79.5 135.5t124 69.5q25 5 50 5q78 0 146 -54q89 -70 142 -209t61 -317q1 -30 1 -60q0 -388 -171 -632q111 -85 181 -192t83 -189q1 -6 1 -12 q0 -21 -17 -33q-15 -11 -31 -12q-8 0 -16 3q-26 8 -31 39q-10 63 -71.5 154.5t-157.5 165.5q-23 -25 -68 -70q-110 -100 -276 -142q-108 -28 -209 -28q-53 0 -105 8q-148 22 -221 99q-50 54 -50 117q0 8 1 16zM120 18q53 -57 186 -74q40 -5 80 -4q138 0 268 56 q114 50 196 139q-90 51 -224 77q-80 15 -162 16q-54 0 -110 -7q-138 -17 -215 -84q-41 -36 -42 -70q1 -25 23 -49z" />
<glyph unicode="J" horiz-adv-x="989" d="M-82 -884q1 4 2 7q35 132 96 241.5t135.5 188t174 143t200 108t224.5 81.5q52 235 72 439q13 125 13 243q0 75 -5 148q-13 187 -78.5 329t-182.5 220q-78 52 -159 57q-10 1 -21 1q-67 0 -121 -28q-62 -33 -106.5 -94t-59.5 -134q-7 -30 -7 -61q0 -46 13 -97 q23 -84 85 -156q39 -46 86 -61q28 -9 53 -9q18 0 34 4q40 11 72 39q23 19 48.5 7.5t30 -36.5t-16.5 -47q-55 -47 -117 -60q-25 -5 -49 -5q-36 0 -68 11q-56 19 -107 58.5t-86.5 100t-56.5 127.5q-16 55 -16 117v28q5 77 35 148q47 106 138 172t207 72h17q109 0 226 -75 q113 -75 184.5 -202t98.5 -268q26 -136 26 -303v-12q-1 -174 -21 -325.5t-55 -316.5q93 26 176 43q18 5 32.5 -2t20.5 -20q7 -14 7 -28t-10 -25q-10 -13 -27 -17q-59 -12 -224 -57q-36 -149 -59 -226q-146 -520 -377 -728q-122 -110 -240 -110q-22 0 -44 4q-105 18 -162 115 q-43 72 -43 157q0 45 12 94zM12 -901q-11 -42 -11 -78q0 -67 37 -115q47 -63 119 -63q13 0 27 2q60 11 118 54.5t104 104t90.5 144.5t77 162.5t63.5 171t50 158t36 133.5v4q-105 -36 -190.5 -75.5t-171 -98t-149.5 -128t-117 -165.5t-83 -211z" />
<glyph unicode="K" horiz-adv-x="1341" d="M2 51l43 1579q1 30 25 42q12 6 23 6q13 0 26 -8q24 -14 24 -44l-28 -981q63 39 118.5 82.5t109.5 102t90 119t52 134.5q9 39 9 79q0 35 -7 69q-5 29 17 45t48 8.5t32 -37.5q8 -44 9 -88q1 -103 -47 -201q-66 -140 -196 -260h9q131 0 254 -59q127 -61 218 -195 q21 -30 102 -171t146 -207q217 -221 611 -221q25 0 51 1q18 1 31 -8.5t16 -23.5q2 -8 2 -17q0 -5 -1 -11q-2 -14 -14.5 -24.5t-31.5 -11.5q-29 -1 -57 -1q-279 0 -474 100q-215 110 -362 368q-14 23 -47 85.5t-51 86.5q-78 111 -192 167q-100 49 -203 49q-15 0 -29 -1 q-118 -8 -217 -74l-15 -483q0 -30 -24.5 -42t-48 1.5t-21.5 44.5z" />
<glyph unicode="L" horiz-adv-x="827" d="M8 202q27 68 106 81q14 2 30 2q57 0 128 -29q14 55 18 122q1 17 1 35q1 54 -7 118q-10 86 -18 134.5t-28.5 148t-22.5 112.5q-15 74 -21 132q-4 41 -4 87v41q2 71 28 132.5t75 108.5q47 46 103 69q57 22 103 24h13q40 0 80 -7q46 -9 71 -19.5t42 -20.5q16 -9 21.5 -24.5 t0.5 -29t-15 -24.5t-25.5 -13t-31.5 7q-19 10 -45 18.5t-70 14.5q-13 2 -25 2q-32 0 -67 -11q-49 -16 -90 -55q-25 -24 -41 -59.5t-23.5 -70.5t-7.5 -83.5t3.5 -85t13 -90.5t16.5 -84t19 -81t16 -67q14 -61 23 -142q7 -61 6 -138v-53q-3 -110 -27 -191q47 -28 87.5 -49 t97.5 -42q57 -22 104 -26q11 -1 22 -1q37 0 75 12q50 15 85 55q20 22 47.5 12.5t34.5 -33.5q2 -6 2 -13q0 -17 -14 -34q-46 -42 -96 -66t-92 -32q-22 -4 -46 -4q-23 0 -47 4q-50 8 -84 17.5t-82 33.5t-69.5 37t-61.5 39q-66 -103 -174 -103h-7q-80 0 -119 63q-21 34 -21 69 q0 25 10 50zM96 164q-1 -3 -1 -6q0 -21 24 -37q15 -10 32 -10q25 0 52 24q15 13 28 33l2 2q-51 18 -86 20h-6q-41 0 -45 -26z" />
<glyph unicode="M" horiz-adv-x="2555" d="M0 1068q10 100 52.5 191t108 169.5t148.5 134.5q95 64 209 94q84 22 168 22q31 0 62 -3q115 -11 219 -55.5t186 -134t121 -210.5q49 -155 74 -358q29 73 67 132t88 106t115 69q45 15 94 15q22 0 45 -3q225 -30 260 -393q39 66 88 111.5t97 65.5q37 15 73 15q12 0 23 -2 q47 -6 82.5 -37t58 -95.5t23.5 -153.5v-19q0 -48 -4 -107q-5 -71 -13.5 -163t-11.5 -144q-3 -75 -3 -142v-33q1 -82 19 -147t50.5 -110t90.5 -67q48 -18 112 -18q15 0 30 1q18 1 31 -8t17 -23q3 -10 3 -21q-1 -3 -1 -7q-2 -14 -13.5 -25t-30.5 -12q-20 -1 -38 -1 q-52 0 -98 10q-60 14 -102.5 38t-73.5 70t-49.5 87.5t-28.5 109.5t-14 117q-2 26 -1 62q0 30 1 67q3 80 6.5 126.5t11.5 127.5q15 115 15 210q0 35 -2 69q-8 120 -67 136q-15 4 -29 4q-40 0 -77 -29q-51 -39 -86 -106t-57 -130t-30 -110q-16 -239 -71 -479q-4 -18 -16.5 -28 t-27.5 -9.5t-28.5 6.5t-20.5 20.5t-2 32.5q60 258 72 519q3 37 3 70v12q0 30 -2 74q-2 53 -8 96.5t-19.5 92.5t-33 84t-51 60t-71.5 31q-14 2 -28 2q-55 0 -103 -28q-60 -35 -101 -94t-72 -135.5t-47 -144.5t-22 -127q1 -50 1 -99q0 -228 -23 -431q-4 -30 -29 -39t-47.5 6 t-20.5 45q21 171 23 400q0 459 -92 749q-40 123 -135 206t-211 111q-68 17 -139 17q-51 0 -103 -8q-126 -20 -229 -90q-89 -61 -154 -145q-65 -86 -95 -184q-23 -77 -23 -154q0 -20 2 -42q8 -98 70 -195t173 -171q25 -17 21.5 -45t-25.5 -39.5t-49 2.5q-112 75 -182 169.5 t-92 190.5q-15 65 -15 133q1 33 4 65z" />
<glyph unicode="N" horiz-adv-x="1783" d="M24 1268q44 132 173 235q81 64 183 94q79 23 160 24q23 -1 45 -3q103 -8 199 -45.5t173 -110t118 -168.5q76 -181 101 -417q74 171 186 273q102 92 227 92q13 0 27 -1q76 -6 128.5 -42t77.5 -88.5t34 -122.5q5 -42 6 -84q0 -28 -3 -55q-6 -69 -21 -143.5t-31.5 -130 t-34.5 -104.5q-97 -254 -96 -390q0 -139 100 -155q22 -4 31.5 -21.5t6 -35t-17.5 -30.5q-11 -10 -27 -10q-5 0 -10 1q-178 31 -178 247q0 162 100 427q87 233 87 391q0 71 -18 127q-34 108 -124 123q-14 2 -29 2q-82 0 -171 -77q-135 -116 -201 -339q-21 -68 -33 -143 q0 -254 -41 -492q-3 -18 -15 -28.5t-26 -10.5t-27 6t-21.5 20t-6.5 32q33 172 37 403q1 9 1 35.5t1 34.5v27q0 386 -109 640q-77 181 -256 241q-77 26 -157 26q-85 0 -174 -29q-157 -51 -240 -165q-63 -87 -63 -183q0 -62 26 -129q46 -113 164 -223q23 -20 15.5 -47 t-31.5 -34.5t-50 11.5q-139 129 -189 271q-27 76 -27 149q1 64 21 125z" />
<glyph unicode="O" horiz-adv-x="1630" d="M10 721q-1 15 -1 31q1 150 55 282q60 144 160.5 241t236 154t277.5 63q16 1 31 1q127 1 257 -43q146 -48 266 -152q102 -88 166 -192q63 -104 83 -208q14 -71 13 -146q0 -32 -2 -66q-9 -108 -52.5 -204t-107 -184t-152.5 -151t-188.5 -106.5t-215.5 -49.5q-22 -1 -45 -1 q-94 0 -189 20q-264 62 -424.5 252t-167.5 459zM104 725q7 -235 147.5 -401t373.5 -220q81 -17 161 -16h42q100 6 187.5 44t165.5 92.5t134 131t95 159.5q40 83 48 177q3 31 2 62q0 62 -11 122q-17 90 -72.5 182t-145.5 169q-104 90 -233 133q-116 39 -228 39q-13 0 -26 -1 q-125 -5 -243.5 -54.5t-207.5 -133.5t-141 -210q-48 -117 -49 -254q1 -10 1 -21z" />
<glyph unicode="P" horiz-adv-x="659" d="M16 63q-13 125 -13 242q0 403 152 709q127 257 332 388q147 94 288 94q25 0 50 -3q154 -19 231 -148q51 -85 58 -206q1 -13 1 -26q1 -105 -49 -211q-56 -118 -144 -200.5t-199 -122.5q-65 -24 -125 -24q-42 0 -82 12q-58 16 -96 45q-36 28 -50 61q-15 36 -15 74 q1 34 15 65q16 33 37.5 59.5t50.5 42.5t58 16q30 0 42 -25t0 -49.5t-42 -24.5q-9 0 -24.5 -13t-27 -33.5t-14 -43.5t20 -45.5t70.5 -36.5q25 -7 53 -7q33 0 70 10q68 18 131 63t115.5 106.5t82.5 140.5q26 68 26 135q0 11 -1 23q-10 172 -123 238q-57 33 -126 33 q-60 0 -129 -25q-167 -62 -301 -242q-198 -267 -232 -675q-6 -76 -6 -156q0 -111 12 -229q3 -30 -20 -46q-14 -10 -29 -9q-10 -1 -20 3q-26 10 -28 41z" />
<glyph unicode="Q" horiz-adv-x="1542" d="M2 721q-1 16 -1 31q0 151 54 282q59 145 160 241.5t236.5 154t277.5 64.5q18 1 36 1q125 0 253 -42q147 -48 266 -150q114 -97 180 -215.5t80 -236.5q5 -44 5 -88q0 -74 -15 -148q-23 -118 -83 -222.5t-148 -187.5q36 -14 59 -25t51 -31t46 -50t28 -70q4 -18 -3 -32.5 t-19.5 -21t-26.5 -7.5h-2q-14 0 -25 10q-12 10 -16 28q-5 19 -16 35.5t-20 26.5t-31.5 21.5t-32 15.5t-40 15.5t-38.5 14.5q-130 -95 -287 -129q-73 -16 -152 -16q-88 0 -182 20q-265 64 -426 253t-168 458zM96 725q7 -235 147 -400t375 -221q86 -18 165 -18q53 0 103 8 q124 21 234 88q-86 61 -104 183q-5 30 17 45.5t48 7t31 -38.5q13 -92 94 -133q105 89 168 212.5t74 256.5q2 22 2 45q0 111 -47 226q-57 138 -182 245q-104 89 -233 131q-114 37 -225 37q-14 0 -29 -1q-124 -5 -242.5 -54.5t-207 -133.5t-140.5 -210q-48 -118 -48 -254v-21z " />
<glyph unicode="R" horiz-adv-x="1298" d="M-8 512q-1 29 -1 59q0 85 12 171q16 116 56 220t100 198t142 163.5t183.5 116t223.5 55.5q31 2 63 3q95 0 200 -21q103 -21 181 -75t122.5 -125.5t62.5 -156.5q11 -54 11 -107q0 -31 -4 -63q-10 -84 -49.5 -163t-102 -140t-156 -97t-205.5 -36q-106 4 -159 8h-7 q-60 0 -77 -53q-5 -17 -5 -34q0 -33 20 -66q31 -49 80 -50q9 0 18 2q18 3 36 11q23 11 61 34.5t71 46t75 44.5q40 21 76 33q28 9 58 10q8 0 16 -1q38 -3 67 -26q61 -45 73 -171q3 -30 2 -65q0 -113 -28 -284q-4 -30 -30 -38q-9 -3 -17 -3q-17 0 -31 10q-22 16 -16 45 q10 60 16 103q4 44 10 103q4 38 4 68q0 17 -1 31q-3 40 -11.5 74.5t-29.5 47.5t-53 3q-40 -12 -90 -43t-92.5 -59t-88.5 -51q-44 -22 -91 -22h-6q-50 2 -99 34q-29 19 -51 54q-21 35 -33 76q-9 30 -9 62q0 11 1 22q4 43 22.5 76.5t60.5 53.5q37 18 88 18h15q69 -6 130 -6h38 q78 2 142.5 19t123.5 70.5t109 148.5q32 60 35 140v16q0 72 -24 144q-26 80 -98.5 145t-179.5 87q-90 20 -171 20q-47 0 -91 -7q-119 -18 -216.5 -69t-169.5 -135t-121.5 -183.5t-72.5 -215.5q-22 -111 -22 -220v-10q1 -114 28.5 -227.5t80.5 -209.5q8 -16 6 -31.5 t-13.5 -25t-25 -13.5t-28 1.5t-23.5 21.5q-54 97 -84.5 208.5t-36.5 225.5z" />
<glyph unicode="S" horiz-adv-x="819" d="M-10 212q2 54 39 99q18 24 44.5 18.5t35.5 -28.5t-5 -49q-4 -6 -8 -10q-13 -22 -14 -43q0 -27 24 -55q40 -48 93 -52h10q45 0 89 25q48 28 85 71.5t73.5 114t60 129t49 142t37 128t27.5 108.5q8 30 11 42q34 126 92 230.5t127.5 175t150 119t159.5 70t157 21.5 q103 0 203 -48.5t137 -135.5q5 -11 5 -21q0 -15 -10 -27q-18 -20 -45 -18.5t-40 29.5q-2 7 -8 17q-72 106 -242 106q-64 0 -130.5 -18t-136.5 -60t-130.5 -103t-112 -154.5t-82.5 -207.5q-4 -17 -15 -56q-20 -82 -33.5 -130.5t-43.5 -142.5t-57 -154t-70.5 -135.5 t-88.5 -118.5q-45 -44 -106 -72q-53 -25 -112 -24h-16q-59 4 -107 38q-50 33 -74 79q-22 42 -22 90v11z" />
<glyph unicode="T" horiz-adv-x="1175" d="M4 1330q9 44 49 83q39 38 173 58q134 19 290 23q64 1 134 2q100 0 214 -3q194 -5 313.5 -12t219.5 -15q20 2 33.5 -11.5t13.5 -35.5q0 -43 -39 -49q-45 -6 -111 -29q-288 -100 -443 -325.5t-155 -544.5q0 -78 14.5 -143t39.5 -109.5t59 -77.5t73.5 -47t82.5 -18 q8 -1 16 0l70 12q29 8 47.5 -11t13 -46t-34.5 -35q-60 -16 -116 -16q-16 0 -31 1q-70 6 -130.5 46t-105 100.5t-69.5 149.5t-25 194q0 315 142 551.5t405 361.5q-172 10 -356 13q-145 4 -241 4q-64 0 -108 -2q-344 -15 -344 -100v-5q7 -40 86 -94l29 -18q26 -16 25.5 -44.5 t-21 -40.5t-49.5 1q-14 6 -37 22q-39 26 -69 58q-29 32 -48 70q-13 26 -13 54q0 14 3 28z" />
<glyph unicode="U" horiz-adv-x="1568" d="M16 1083q6 72 41 137t88 115.5t127.5 83.5t157.5 41q23 2 46 2q120 0 234 -66q136 -80 200 -228q32 -74 31 -161q0 -89 -32 -194q-13 -38 -52.5 -120.5t-72 -158.5t-59.5 -160q-21 -67 -21 -127q0 -15 1 -31q7 -72 53 -118q47 -46 107 -46q1 0 2 -1q59 1 115 37 q57 36 114 91t104 120t80.5 121t48.5 94q38 100 106.5 296t117.5 342l49 146q11 28 37.5 32.5t44.5 -14.5q12 -13 13 -30q0 -8 -3 -18q-189 -551 -189 -553q-35 -106 -47 -324q-4 -67 -4 -125q0 -130 19 -211q5 -18 -2 -32.5t-20 -21t-28 -7.5t-27.5 9t-17.5 28 q-21 91 -21 228q0 49 3 103q-44 -75 -100 -146.5t-129 -135.5t-145 -98q-57 -27 -118 -28q-18 0 -34 2q-78 10 -144 75q-53 51 -72 121q-13 48 -13 96q1 22 3 42q8 68 35.5 149t58.5 145.5t66.5 141t50.5 120.5q26 85 26 157q-1 71 -25 129q-50 118 -158 181q-91 53 -187 53 q-18 0 -37 -2q-113 -11 -196 -72q-82 -62 -114 -151q-17 -48 -18 -96q0 -42 13 -84q27 -89 94 -131q54 -34 111 -34q14 0 28 2q72 10 119 60q21 21 48 12t34 -33t-12 -49q-53 -53 -129 -74q-45 -13 -90 -13q-30 0 -60 6q-75 14 -140.5 73t-94.5 154q-17 61 -17 119z" />
<glyph unicode="V" horiz-adv-x="1146" d="M-220 1044q4 53 25 107q21 58 64.5 105.5t98.5 77.5q56 32 120 38q16 2 32 1q48 0 94 -14q62 -19 120.5 -76t99.5 -148q31 -68 58.5 -148t45.5 -140.5t41.5 -160t33 -144.5t32.5 -161.5t29 -147.5q24 -116 33 -133q8 -16 26 -22t38.5 2.5t33.5 32.5q22 36 76 276 q82 355 142 539q213 648 540 717q5 1 10 1q11 0 21 -5q14 -7 20 -20.5t6 -28t-10 -27t-27 -15.5q-59 -13 -114 -50t-100 -89t-87.5 -124.5t-75.5 -147.5t-65 -166.5t-55.5 -172.5t-47.5 -175t-40.5 -165t-35 -151t-30.5 -125q-25 -87 -41 -118q-18 -32 -53 -55 q-34 -23 -74 -31q-11 -2 -24 -2q-28 0 -56 14q-40 20 -63 67q-23 45 -97 426q-92 419 -178 609q-34 73 -85 116.5t-105 51.5q-19 3 -38 3q-34 0 -67 -9q-52 -14 -93 -52t-62 -90q-22 -53 -21 -102q0 -44 15 -76q16 -32 44 -55t60 -29q12 -2 24 -3q22 0 44 7q36 11 65 39 q21 20 47.5 10.5t32.5 -33.5t-14 -47q-38 -37 -81 -56q-44 -19 -84 -19q-1 0 -2 -1q-40 -1 -78 13q-40 14 -71.5 40t-55 63.5t-34.5 81.5q-8 32 -8 69q0 14 1 28z" />
<glyph unicode="W" horiz-adv-x="1507" d="M-261 1294q0 24 19 39q21 17 49 4q83 -36 216 -36q53 0 114 6q50 119 92 170q108 137 218 138q75 0 113 -59q23 -35 23 -75q0 -32 -15 -67q-46 -106 -205 -161q-71 -25 -160 -36q-37 -101 -62.5 -212t-39.5 -239q-7 -60 -6 -119q0 -67 8 -137q16 -130 63 -234 q36 -84 102 -133q65 -49 146 -49h2q82 0 155 58q35 26 78 69q-54 76 -89.5 171.5t-50.5 193.5q-9 60 -9 120q0 38 4 76q10 98 40.5 177.5t92.5 139.5t147 83q35 9 69 9q32 0 62 -8q62 -17 105 -65q42 -50 60 -126q8 -36 7 -76q0 -47 -10 -101q-31 -151 -109.5 -309.5 t-185.5 -284.5q69 -70 149 -97q48 -16 96 -16q33 0 65 7q80 18 157 99.5t131 219.5q32 81 53 170t29 160q10 70 12 129q1 33 1 58q0 20 -1 34q-2 33 -4 35q-24 18 -18.5 45.5t29 37t49.5 -6.5q20 -16 30.5 -69t10.5 -128.5t-13.5 -167.5t-38 -186.5t-67.5 -185.5t-96.5 -164 t-130 -122.5t-164.5 -60.5q-26 -3 -50 -3q-168 0 -298 136q-8 -8 -82 -71q-106 -77 -211 -77h-8q-108 3 -198 68.5t-138 170.5q-48 110 -66 242q-12 82 -12 164q0 48 4 96q11 130 35 246t61 224q-26 -1 -50 -1q-72 1 -138 9q-90 12 -141 33q-30 14 -30 45zM250 1323 q122 26 188 74q44 30 45 76q2 39 -29 47q-6 2 -13 2q-49 0 -124 -88q-7 -8 -14 -17q-26 -33 -53 -94zM604 602q23 -171 115 -307q96 118 166 261.5t98 279.5q9 47 9 86q0 89 -49 137q-38 36 -89 36q-23 0 -48 -7q-91 -27 -150 -128q-60 -104 -60 -248q0 -52 8 -110z" />
<glyph unicode="X" horiz-adv-x="1677" d="M34 52q-2 7 -2 14q0 18 12 33q17 21 46 14q37 -7 73 -7q21 0 43 2q56 6 113.5 33.5t111 65t106.5 87t100.5 101t92 107.5t82.5 105.5t71 95.5q9 13 14 19.5t12 16t13 17.5q8 8 26 35q-34 145 -84 255.5t-104 175t-114 104.5t-116 51q-41 8 -81 8q-14 0 -28 -1 q-53 -4 -91.5 -19.5t-65.5 -37.5q-60 -48 -86 -112q-21 -50 -20 -95q0 -12 2 -24q8 -56 48 -99t105 -53q19 -3 36 -3q49 -1 79 23q35 28 35 68q-1 6 -1 10q-4 46 -42 74q-15 11 -19.5 27t2 29t17.5 23t26.5 9.5t30.5 -10.5q59 -44 79 -98q11 -29 12 -56q0 -22 -8 -43 q-17 -46 -53.5 -83.5t-92.5 -55.5q-37 -12 -74 -11q-19 0 -39 3q-112 15 -172.5 83.5t-63.5 153.5v13q-1 79 33 159q36 87 105 142q40 33 92.5 55t116.5 27q18 1 35 1q47 0 95 -9q66 -13 135 -55t131.5 -108.5t119 -175t96.5 -247.5q37 49 69 90t74.5 91.5t81 90.5 t85.5 82.5t91 72.5t94 55.5t97.5 37.5t99 12t101.5 -16q29 -9 33 -35q1 -5 1 -9q0 -20 -15 -36q-19 -19 -48 -10q-39 12 -79 12q-58 -1 -119 -25q-104 -42 -212 -150.5t-170 -183.5t-155 -200q2 -9 6 -27.5t6 -27.5q36 -194 77.5 -323.5t110.5 -201.5q37 -40 85 -54 q31 -9 58 -9q15 0 29 3q40 8 71 27.5t42 43.5q11 28 38 30t44.5 -18.5t5.5 -48.5q-28 -69 -104 -106q-54 -26 -118 -26q-26 0 -54 4q-96 15 -166 89q-43 44 -77 105.5t-59 141.5t-40 141t-33 153q-164 -221 -256 -324q-299 -333 -559 -333q-42 0 -82 9l-8 2q-30 8 -36 34z " />
<glyph unicode="Y" horiz-adv-x="1363" d="M0 1092q1 59 16.5 117.5t44.5 105.5q37 61 90 103.5t112 62t125 23.5h20q55 0 106 -16q62 -18 119.5 -51t100.5 -86t72.5 -119.5t33.5 -151.5q1 -15 1 -31q0 -71 -16 -150q-22 -99 -59 -201t-97.5 -244t-80.5 -194q-2 -5 -12 -31.5t-14 -37.5t-13 -38t-10.5 -41.5 t-5 -38.5t0.5 -39t10.5 -33t20 -30.5t33.5 -21.5q19 -9 44.5 -9.5t57.5 7t68 26.5t75 47.5t79 72.5t79.5 98t77 127t70 157.5t60.5 192t48 227.5q3 21 23 35q15 9 35 6t31 -18q8 -10 8 -37l-22 -190q-23 -190 -55.5 -464.5t-73 -622t-79 -691.5t-71 -642t-51.5 -503 q-17 -185 -17 -238v-10q1 -30 -23 -43q-12 -7 -25 -7q-11 0 -23 5q-24 11 -25 41v11q0 177 180 1764q19 166 50.5 425t55.5 450t25 192q-40 -87 -88 -162.5t-96.5 -132t-100 -100t-100.5 -70t-96 -39.5q-41 -11 -77 -11h-12q-41 2 -75 18q-44 20 -71 53t-38 68q-8 30 -8 69 v15q2 47 11 88t27 93t33.5 88t36 84t29.5 70q10 24 35.5 84.5t41 99t38 102.5t33.5 110.5t19 106.5q6 37 6 69q0 19 -2 36q-5 46 -22.5 93.5t-49.5 83.5q-69 78 -152 110q-60 25 -116 25q-19 0 -38 -3q-72 -12 -132 -49.5t-93 -92.5q-39 -65 -47 -134q-2 -21 -2 -40 q0 -46 14 -84q19 -53 67 -86q44 -31 103 -31h11q31 1 45 -22t2 -47.5t-43 -26.5h-17q-66 0 -118 21q-58 24 -91 66t-51 98q-17 51 -17 105q0 4 1 9z" />
<glyph unicode="Z" horiz-adv-x="1370" d="M2 1147q-1 14 -1 28q0 113 74 197q92 106 265 115q9 1 19 0q65 0 138 -23q84 -27 156 -68t154 -86.5t151 -79.5q69 -32 147 -44q24 -4 47 -4q51 0 95 18q17 10 35 6.5t29 -18.5q12 -14 11 -33t-15 -31q-12 -17 -67.5 -88.5t-150.5 -195t-171 -222.5q-166 -216 -328 -419 q47 -15 130.5 -47.5t137.5 -50.5q56 -17 128 -33q51 -11 99 -11q20 -1 41 1q68 6 134 36q28 12 49 -5q19 -16 19 -39q0 -30 -30 -44q-86 -38 -170 -46q-25 -2 -50 -2q-56 0 -112 12q-78 18 -143.5 43t-150 58.5t-144.5 49.5q-139 -174 -243 -174q-59 0 -107 55 q-37 41 -37 81q1 3 1 7q4 43 34.5 76.5t83.5 53.5t111 20q45 0 118 -15q222 277 668 860h-9q-76 1 -162 31q-90 32 -171 78.5t-159 93.5q-78 46 -160 76q-72 27 -134 27h-16q-153 -8 -218 -110q-33 -52 -33 -109q0 -30 9 -62q25 -86 103 -120q38 -17 82 -17q26 0 55 6 q18 4 32.5 -3t20.5 -20t6 -27.5t-10 -27t-28 -16.5q-44 -10 -84 -10q-109 0 -186 72q-84 78 -93 200zM253 59q12 -11 30 -11q20 0 48 15q43 23 87 76v2q-14 2 -47 2q-88 0 -118 -39q-10 -13 -10 -24t10 -21z" />
<glyph unicode="[" horiz-adv-x="206" d="M16 -176q7 161 9 673t-9 980q0 23 15 38t35 17q2 2 8 2q7 0 62 -2.5t69 -1.5q30 1 43 -23.5t2 -49t-41 -23.5h-94q35 -1215 2 -1573l114 -4q33 0 41 -31t-18 -52q-15 -11 -35 -12q-8 0 -63 2.5t-76 2.5q-12 -4 -37 4q-13 9 -18 18q-12 16 -9 35z" />
<glyph unicode="\" horiz-adv-x="610" d="M12 1432q-9 29 9 50.5t44 19t35 -31.5q176 -526 323 -1001t165 -612q4 -30 -17 -44.5t-46 -5t-33 38.5q-34 143 -193 671t-287 915z" />
<glyph unicode="]" horiz-adv-x="206" d="M-50 -200q-10 32 14 49q11 8 26 8l114 4q-33 358 2 1573h-94q-30 -1 -41 23.5t2 49t43 23.5q13 -1 67.5 1.5t61.5 2.5t11 -2q20 -2 33.5 -16.5t13.5 -38.5q-9 -465 -7 -980.5t9 -672.5q3 -20 -8 -35q-5 -10 -21 -18q-21 -9 -35 -4q-21 0 -76.5 -2.5t-62.5 -2.5 q-42 2 -52 38z" />
<glyph unicode="^" horiz-adv-x="479" d="M70.5 588q-2.5 25 19.5 45q4 3 36.5 25.5t59.5 38.5t39 16q8 0 20.5 -5.5t24.5 -12.5t28 -18t25.5 -18t22.5 -17l12 -9q15 -11 19.5 -26.5t-1.5 -28.5t-16.5 -23.5t-26 -11t-30.5 9.5q-68 51 -78 61q-16 -13 -80 -61q-24 -17 -48 -3.5t-26.5 38.5z" />
<glyph unicode="_" d="M6.5 25q-10.5 24 3.5 48t47 25q13 1 121 -2t121 -2q30 1 43 -23t2 -48.5t-41 -24.5q-229 0 -258 2q-28 1 -38.5 25z" />
<glyph unicode="`" horiz-adv-x="479" d="M97 713q13 25 38 27.5t45 -19.5q11 -15 58 -107q15 -27 6 -46.5t-27.5 -19.5t-32.5 13q-17 17 -49 57l-33 46q-18 24 -5 49z" />
<glyph unicode="a" horiz-adv-x="827" d="M2 250q14 81 80 143q67 63 153 71l22 2q74 0 140 -50q39 -30 61 -77q20 -41 19 -82v-11q-1 -25 19.5 -57t57.5 -57.5t81 -37.5q19 -5 40 -6q27 0 56 9q52 16 96 65q20 21 47 13q26 -8 34 -31q2 -7 3 -13q0 -17 -14 -35q-55 -61 -123 -86q-49 -18 -95 -18q-17 0 -35 2 q-62 10 -115.5 40t-90.5 75q-14 -25 -39 -50q-51 -46 -119 -61q-27 -6 -53 -6q-41 0 -82 14q-67 23 -106 82q-40 63 -40 126q0 18 3 36zM98 234q-2 -11 -2 -22q0 -37 23 -69q32 -50 99 -54h11q60 0 103 42q48 45 48 112q0 63 -44 99q-34 29 -78 29q-8 0 -14 -1 q-52 -5 -94 -46q-44 -40 -52 -90z" />
<glyph unicode="b" horiz-adv-x="651" d="M-13 114q-2 6 -2 13q0 18 15 35q19 15 53 61q-45 109 -54 254q-2 31 -2 62q-1 111 25 213q32 130 103 186q41 32 89 40q16 2 31 3q29 0 57 -10q40 -15 70.5 -52t37.5 -88q3 -18 3 -39q0 -104 -68 -263q-81 -191 -183 -326q27 -61 65 -89t62 -28q45 0 75.5 24t41.5 60 q-63 24 -82 76q-8 25 -4.5 47t20 35t36.5 18t43.5 -3t41.5 -28q27 -30 39 -67q34 -4 63 -4q55 0 88 16q17 8 32 6t24.5 -14t13.5 -26q2 -5 2 -10q-1 -9 -5 -18q-6 -15 -22 -24q-44 -24 -96 -26q-15 -1 -30 0q-35 0 -68 4q-19 -67 -80.5 -114.5t-132.5 -47.5q-51 0 -102.5 33 t-90.5 100q-17 -21 -26 -27q-21 -21 -48.5 -13.5t-34.5 31.5zM96 518q2 -112 27 -201q79 112 140 267q52 131 52 209q0 14 -2 26q-7 50 -47 64q-12 4 -24 4q-28 0 -56 -23q-46 -38 -70 -136q-21 -89 -21 -189q1 -10 1 -21z" />
<glyph unicode="c" horiz-adv-x="583" d="M2 201q-2 17 -2 33q0 48 15 90q20 58 59.5 94t89.5 54q32 12 66 13q18 0 38 -4q56 -10 103 -49q14 -12 17.5 -27.5t-3.5 -28t-18 -21t-27 -8.5t-31 11q-26 20 -57.5 24t-60 -8.5t-51.5 -34.5q-22 -22 -34 -57q-8 -23 -8 -48q0 -13 2 -27q8 -50 44 -87q37 -36 91 -52 q48 -14 101 -15q7 0 14 1q61 2 124 30t110 78q16 16 36 15.5t32 -13.5q12 -14 16 -32q1 -3 1 -6q0 -15 -14 -30q-42 -48 -105 -81.5t-132 -47.5q-47 -10 -95 -10q-22 1 -45 3q-71 6 -129 32t-98.5 80t-48.5 129z" />
<glyph unicode="d" horiz-adv-x="837" d="M2 174q4 -46 27 -88q19 -37 59 -61t92 -30q11 -1 23 -1q43 0 93 16q64 22 126 72q79 -106 209 -109h7q148 0 269 121q14 14 14 32q-1 8 -3 16q-10 26 -33.5 32t-46.5 -14q-79 -88 -184 -88h-7q-93 3 -151 82q150 166 172 407q4 42 4 80q0 110 -30 187q-40 104 -130 110 h-12q-78 0 -132 -76q-58 -82 -74 -201q-7 -55 -7 -113q1 -70 11 -145q18 -138 71 -241q-43 -35 -88 -55q-38 -17 -78 -17h-13q-46 4 -77 41q-21 25 -21 59t17 65t52.5 53.5t80.5 25.5q30 3 40.5 28t-4 48t-45.5 20q-55 -4 -101.5 -27.5t-75 -59.5t-43.5 -79q-12 -34 -12 -70 q0 -10 1 -20zM383 496q-1 18 -1 35q0 169 54 260q31 51 63 51q7 0 14 -2q47 -17 59 -132q3 -28 3 -59q0 -37 -4 -80q-13 -153 -129 -327q-27 62 -42 133t-17 121z" />
<glyph unicode="e" horiz-adv-x="405" d="M-127 365v5q1 101 75 141q35 19 70 19q41 0 82 -26q72 -45 72 -145v-11q-5 -111 -72 -213q73 -49 154 -49q85 0 152 76q20 21 46.5 13t33.5 -31q2 -6 2 -13q0 -17 -13 -35q-96 -106 -221 -106q-96 0 -184 52t-142 139.5t-55 183.5zM-17 284q17 -38 48 -79h2q41 74 41 147 v6q0 56 -36 70q-9 4 -18 4q-20 0 -36 -20q-19 -23 -19 -55t18 -73z" />
<glyph unicode="f" horiz-adv-x="462" d="M-248 -102q2 14 14 24.5t31 11.5q60 0 205 29q-10 484 -10 623v37q2 58 21.5 107.5t50.5 79t68 42.5q19 7 40 7q17 0 34 -5q39 -11 70 -45q48 -53 55 -135q2 -18 2 -36q0 -64 -19 -127q-24 -82 -65.5 -166.5t-82.5 -145.5t-74 -97l4 -116q257 66 367 176q20 21 47 13 t35 -31q2 -7 2 -14q0 -17 -12 -34q-69 -69 -186 -123t-249 -88q9 -322 9 -432q0 -30 -25 -42q-12 -6 -24 -6t-24 6q-24 12 -24 42q0 14 -8 412q-107 -21 -201 -27q-18 -1 -31 8t-17 23q-3 10 -3 21v8zM88 246l4 4q60 79 94.5 165.5t39.5 152.5q3 30 3 56q0 31 -3 56 q-7 47 -23 63q-4 5 -15 9q-8 3 -18 3q-5 0 -10 -1q-16 -2 -31 -12.5t-26.5 -41.5t-12.5 -79q-3 -104 -3 -225q0 -72 1 -150z" />
<glyph unicode="g" horiz-adv-x="579" d="M10 154q-12 36 -12 71q0 43 18 83q32 72 98 108.5t140 45.5q13 2 25 2q61 0 117 -38q67 -45 93 -137q23 -77 33 -361q24 11 107 43q30 8 49 -11q15 -16 15 -37q0 -5 -1 -10q-4 -27 -33 -36q-65 -19 -137 -57q0 -64 -3.5 -126.5t-12 -139.5t-26.5 -142t-43 -123t-64.5 -95 t-89.5 -46q-14 -3 -28 -3q-70 0 -110 71q-35 60 -35 144q0 41 9 89q34 183 179 326q58 57 130 102q-3 97 -10 178q-46 -39 -107 -56q-42 -12 -83 -12q-19 0 -36 3q-59 7 -109 49.5t-73 114.5zM102 182q17 -53 58 -79q33 -21 69 -21h15q45 6 85 28t61 64q12 27 12 54 q0 18 -5 36q-25 96 -131 105q-7 1 -14 1q-62 0 -114 -59q-41 -48 -41 -95q0 -17 5 -34zM207 -674q20 -84 54 -84q21 0 47 31q43 52 72 139q2 4 3 8q38 113 45 338q-126 -99 -184 -225q-43 -93 -43 -161q0 -24 6 -46z" />
<glyph unicode="h" horiz-adv-x="739" d="M-79 466q-2 6 -2 13q1 7 3 15q6 15 21 24q7 5 22 17t21 16q-2 32 -4 64.5t-3.5 50t-1.5 20.5q-2 29 1.5 62t14.5 67.5t29 60.5q16 26 46 38q18 8 39 7q13 0 28 -3q37 -8 58 -45.5t21 -77.5q0 -4 1 -9q0 -35 -4 -65q-21 -119 -125 -215q1 -23 4 -79t4 -87q60 43 124 43 q18 1 38 -3q84 -16 152 -101q70 -86 91 -107q69 -69 131 -69q40 0 77 29q16 12 32 30q21 21 48 13t35 -31q2 -7 2 -14q0 -17 -13 -34q-61 -68 -137 -82q-24 -5 -47 -4q-51 0 -99 22q-70 32 -127 99q-8 9 -33.5 43t-48 60.5t-36.5 33.5q-28 16 -56.5 17t-51.5 -10.5 t-40 -25.5t-31 -32l-2 -2q1 -29 3.5 -70t4 -65.5t1.5 -38.5q1 -31 -23 -43q-12 -7 -25 -6q-11 0 -23 6q-24 12 -26 41q-4 111 -22 397q-15 -8 -30.5 -6.5t-25.5 12.5t-15 24zM70 756q-5 -29 -4 -52q0 -34 10 -55q10 8 23 34.5t22 56.5q8 25 8 47q-1 4 -1 7q-2 25 -17 29h-3 q-27 0 -38 -67z" />
<glyph unicode="i" horiz-adv-x="352" d="M-6 385q3 19 15 30t26.5 11.5t28 -4.5t21.5 -19t5 -32q-6 -41 -6 -83q0 -2 -1 -5q0 -39 8 -85q8 -48 36.5 -79.5t75.5 -32.5q82 0 149 76q21 21 48 13q26 -8 34 -31q2 -7 3 -14q0 -17 -13 -34q-46 -52 -108 -80q-60 -28 -120 -28h-2q-60 0 -112 39.5t-76 115.5 q-20 61 -20 139q0 48 8 103zM36 571q-5 11 -5 22q-1 15 9 30q16 26 54 26q28 0 39 -26q5 -11 5 -22q0 -15 -8 -30q-14 -26 -48 -26t-46 26z" />
<glyph unicode="j" horiz-adv-x="206" d="M-260 -549q19 288 297 418q-5 241 -62 508q0 2 -1 6t-1 6q0 21 16 34t36 13q16 0 29 -10t16 -29l6 -27q5 -27 13 -74t16.5 -105.5t15.5 -134.5t10 -148q92 32 205 45h8q22 0 33.5 -14.5t11.5 -34.5q0 -41 -41 -47q-116 -13 -215 -50q-7 -365 -162 -507q-51 -48 -100 -48 q-57 0 -94 55t-37 128v16zM-164 -569q0 -80 35 -80q15 0 35 20q115 102 129 389q-89 -52 -144 -135t-55 -194zM-72 649q0 23 16.5 40.5t45.5 17.5q19 0 31 -14.5t12 -33.5q0 -22 -15 -39.5t-41 -17.5q-24 0 -36.5 13.5t-12.5 33.5z" />
<glyph unicode="k" horiz-adv-x="667" d="M-74 448q4 20 23 33q21 12 45 33q-10 153 -10 170v18q0 30 4 62q6 40 22 80t50 60q23 14 51 14q14 0 28 -3q38 -8 59 -50t21 -85.5t-2 -77.5q-21 -130 -125 -231q8 -99 10 -168q89 83 89 140q0 11 -3 22q-9 29 9.5 49t45.5 16.5t36 -32.5q10 -27 10 -55q0 -66 -56 -140 q64 -13 113 -65q1 -1 15 -16.5t17 -18t16 -16t18 -17.5t18 -15t20 -14.5t19.5 -10.5t22.5 -9.5t22.5 -5t24.5 -2.5q86 0 129 49q20 21 47 13t35 -31q2 -7 2 -14q0 -17 -13 -34q-72 -80 -200 -80q-42 0 -79 11.5t-72.5 39t-55 46t-56.5 57.5q-41 43 -92 43q-24 0 -51 -10 q-4 -3 -12 -9.5t-12 -9.5q8 -126 8 -141q0 -19 -10 -32q-11 -13 -25 -16q-8 -2 -15 -2q-6 -1 -13 1q-14 2 -24 14.5t-10 30.5q-6 148 -20 360v-2q-22 -13 -39 -5t-27 22q-8 11 -8 25q-1 4 0 9zM78 690q3 -6 6 -72q45 76 45 136q0 36 -16 67q-14 -5 -22.5 -35.5t-10.5 -54.5 t-2 -41z" />
<glyph unicode="l" horiz-adv-x="415" d="M-127 512q0 45 5 96t19.5 112t36.5 108.5t60.5 79.5t87.5 32q44 0 77 -28.5t50.5 -68.5t28 -92t13.5 -89t3 -70q0 -262 -131 -449q61 -61 119 -61q45 0 95 23t79 57q17 14 35 14q20 0 34.5 -14.5t14.5 -34.5q0 -16 -15 -31q-49 -49 -114 -79.5t-129 -30.5 q-77 0 -148.5 54.5t-118 135t-74.5 171t-28 165.5zM-33 545q0 -180 92 -322q46 78 73.5 177t27.5 196q0 85 -24 165.5t-58 80.5q-44 0 -84 -117q-27 -89 -27 -180z" />
<glyph unicode="m" horiz-adv-x="1693" d="M-12 114q-2 7 -2 14q0 17 14 34q29 30 75 87.5t70 80.5q47 44 104 58q21 5 42 5q35 0 69 -14q54 -23 86 -80q37 63 93.5 89t107.5 26h6q120 0 178 -111q49 93 166 98h4q59 0 116 -30q59 -31 107 -76t96 -90.5t106.5 -77.5t119.5 -33q86 0 148 68q16 16 36 15.5t32 -13.5 q12 -14 16 -32q1 -3 1 -6q0 -15 -14 -30q-61 -67 -133 -89q-38 -12 -75 -12q-33 -1 -67 9q-71 20 -134.5 58.5t-124.5 97.5q-27 25 -45.5 41t-49.5 40.5t-54 36.5t-51 23.5t-49 6.5t-41 -18.5t-33 -48t-19 -85.5q-2 -17 -4 -51.5t-4 -51.5q-1 -22 -16 -32.5t-34 -10.5 q-22 0 -35 13.5t-12 35.5v23q0 104 -41 167q-45 68 -91 68h-3q-11 0 -26 -3.5t-38.5 -18t-42.5 -37.5t-33 -69t-15 -107q0 -23 -2 -35.5t-13 -24.5t-33 -12q-49 0 -49 62v10v11q1 47 -7 89q-8 46 -33 81q-23 34 -60 34h-2q-36 0 -73 -30.5t-86 -92t-66 -78.5 q-20 -22 -47 -14t-35 32z" />
<glyph unicode="n" horiz-adv-x="1161" d="M-10 114q-2 7 -2 14q0 17 14 34q30 31 75.5 88.5t67.5 79.5q47 44 111 60q30 8 59 8q31 0 61 -10q56 -18 83 -66q63 49 132 49q19 0 37 -3q90 -16 156 -104q9 -12 28.5 -38.5t30.5 -41.5t31.5 -35.5t38 -31.5t42.5 -19t53 -8q87 0 153 72q20 21 47 13t35 -31q2 -7 2 -14 q0 -16 -12 -34q-99 -105 -218 -105q-8 0 -17 1q-129 8 -226 127q-3 4 -31 42.5t-48 61.5t-38 33q-31 17 -61 17q-54 0 -105 -54q2 -25 2 -54.5t-1 -63t-1 -48.5q0 -31 -24.5 -43.5t-48.5 1t-23 44.5q0 8 0.5 28t0.5 38.5t-1 34.5q-7 61 -31 101t-65 40q-29 0 -61 -22.5 t-55 -49.5t-56.5 -68t-52.5 -61q-20 -22 -47 -14t-35 32z" />
<glyph unicode="o" horiz-adv-x="608" d="M0 203v9q0 78 49 136q52 62 133 76q20 3 39 3q53 1 104 -25q69 -36 103 -103q60 0 93 14.5t87 57.5q24 18 50 6q25 -13 29 -37q1 -4 1 -7q0 -20 -18 -38q-65 -50 -111 -70.5t-110 -21.5q-1 -64 -34.5 -112t-82.5 -71q-48 -24 -106 -26h-8q-54 0 -100 20q-50 21 -83 70 t-35 119zM124 131q26 -30 71 -41q15 -3 29 -4q41 0 78 29q50 38 50 94q0 55 -47 93q-37 31 -81 30q-11 0 -23 -2q-48 -10 -77 -44q-28 -33 -28 -78q0 -46 28 -77z" />
<glyph unicode="p" horiz-adv-x="681" d="M2 406q2 23 14 36q12 11 32 11h3q47 -3 47 -50l2 -51q47 38 106.5 59t121.5 21q0 1 1 1q61 0 118 -32q58 -32 96 -96q46 -4 65 -4q61 0 94 16q26 15 48 -1t22 -39q0 -27 -27 -46q-53 -26 -137 -26q-19 0 -33 2q1 -9 1 -19q0 -40 -14 -78q-18 -45 -50.5 -72.5t-75.5 -33.5 q-9 -2 -17 -2q-36 0 -75 23q-58 33 -73 94q-5 20 -5 39q0 40 22 76q31 55 93 71q16 4 27 4q-42 29 -102 29h-11q-40 -1 -76.5 -20t-60.5 -45.5t-37.5 -46t-20.5 -33.5l13 -918q0 -30 -25 -42q-12 -6 -24 -6t-24 6q-24 12 -24 42q-6 609 -12 1001q-2 82 -2 130zM371 184 q-8 -18 -8 -33q0 -24 21 -39q16 -11 33 -11q14 0 29 8q35 18 35 65q0 17 -5 38q-1 1 -1 3q-93 0 -104 -31z" />
<glyph unicode="q" horiz-adv-x="825" d="M2 211q-1 10 -1 21q0 39 13 74q15 44 44.5 75t69.5 51.5t82 27.5q22 4 45 4q20 0 41 -3q43 -7 79 -27t62.5 -58.5t35.5 -90.5q4 -20 4 -47l2 -7q8 -47 63.5 -92t130.5 -50h9q71 0 143 73q20 21 47 13t34 -31q3 -7 3 -13q0 -17 -14 -35q-62 -68 -139 -91q-45 -14 -86 -14 q-30 0 -57 7q-67 16 -124 59q23 -370 23 -630q0 -84 -2 -156q-1 -30 -26 -41q-11 -5 -23 -5q-13 0 -26 7q-24 13 -23 43q4 80 4 181q0 238 -23 595q-50 -40 -115 -51q-27 -5 -53 -5q-37 0 -71 9q-59 16 -102.5 70t-49.5 137zM96 219q4 -48 26.5 -79.5t53.5 -42.5 q24 -8 51 -8q8 0 17 1q36 3 66.5 20.5t51 49t21.5 69.5q-1 5 -2 15.5t-2 15.5q-6 87 -79 106q-21 6 -42 6q-50 0 -98 -32q-64 -44 -64 -111v-10z" />
<glyph unicode="r" horiz-adv-x="733" d="M-10 112q-2 7 -2 15q0 17 12 35q32 35 67 99t50 114q13 29 28 35q9 3 18 3q14 0 30 -7q58 -35 174 -48q37 -3 49 -30q8 -16 22 -64t27 -84t47 -67t82 -31q40 0 71 20t68 60q21 21 48 13t35 -31q2 -7 2 -14q0 -17 -13 -34q-96 -106 -221 -106q-55 0 -98.5 21.5t-71.5 60.5 t-46 82t-32 98q-1 2 -2 7t-2 7q-110 18 -139 31q-18 -47 -54.5 -107t-68.5 -94q-19 -23 -45.5 -15.5t-34.5 31.5z" />
<glyph unicode="s" horiz-adv-x="661" d="M-10 112q-2 7 -3 14q0 17 13 36q45 48 77 114t38 125q3 29 23 41q18 11 42 11h8q80 -3 160 -42.5t125 -101.5q48 -68 48 -132q0 -50 -29 -97h10q36 0 76 18q46 22 84 64q20 21 46.5 13t33.5 -31q2 -6 2 -13q0 -17 -13 -35q-73 -82 -185 -115q-65 -19 -126 -19 q-44 0 -84 10q-98 24 -135 91q-15 26 0.5 48t42.5 21.5t41 -30.5q5 -10 19.5 -19.5t31.5 -10.5h14q41 4 60 51q8 25 8 48q0 20 -6 39q-14 39 -50.5 69.5t-77.5 49t-81 25.5q-34 -150 -133 -258q-20 -23 -46 -15.5t-34 31.5z" />
<glyph unicode="t" horiz-adv-x="352" d="M-202 756q-6 12 -6 24t6 24q13 24 44 23h154l-2 217q0 30 24 42q12 6 25 6l25 -6q24 -12 24 -42v-217l311 -4q29 0 41 -24q6 -12 6 -23q0 -12 -6 -24q-12 -24 -43 -23h-309v-4q4 -430 4 -483v-11q0 -78 40 -114q32 -29 74 -29q16 0 32 4q62 14 112 70q20 21 47 13 t34.5 -31t-11.5 -48q-70 -78 -162 -100q-31 -8 -61 -8q-57 0 -105 28q-74 42 -94 138q-3 16 -4 48t-1 60.5t0.5 76.5t0.5 71v321h-156q-31 1 -44 25z" />
<glyph unicode="u" horiz-adv-x="784" d="M2 367q-1 19 8 32t22.5 16.5t27.5 1.5t24.5 -14t11.5 -30q2 -15 3 -52.5t1.5 -84t1.5 -66.5q2 -42 24 -60q20 -17 62 -16h5q39 0 67.5 13t44 36.5t25 49.5t11 61t0.5 61t-5 60q-3 29 21 45q15 9 30 10q10 0 19 -4q25 -10 26 -41q1 -6 2 -18t2 -50v-39v-40q3 -47 59 -95 q57 -49 133 -55h11q71 0 145 74q20 21 47 13t35 -31q2 -7 2 -13q0 -17 -14 -35q-56 -61 -123 -86q-49 -18 -94 -18q-17 0 -35 2q-62 10 -115 40t-90 75q-37 -57 -102 -87q-56 -25 -109 -26q-10 0 -18 1q-62 5 -109.5 48.5t-52.5 118.5q-4 57 -4 203z" />
<glyph unicode="v" horiz-adv-x="567" d="M0 373q0 30 24 42t48 0t24 -42q0 -44 21 -153t55 -142q98 39 137 158q-67 27 -101 85q-25 42 -26 84q0 16 4 31q13 57 70 80q25 7 46 7q18 0 34 -6q32 -13 51.5 -50t27.5 -75q7 -34 7 -67v-8q82 6 145 62q27 24 53 14t30 -35q1 -4 0 -7q0 -21 -17 -40q-114 -92 -225 -92 h-2q-24 -79 -79 -143.5t-126 -89.5q-18 -7 -35 -7q-26 1 -50 17q-38 26 -59 74.5t-34.5 111.5t-18 110t-4.5 81zM278 400q0 -35 46 -62q0 32 -9 59q-7 28 -21 28q-16 -1 -16 -25z" />
<glyph unicode="w" horiz-adv-x="995" d="M-2 213q-6 32 -6 69q0 39 6 85q4 31 29 40.5t47.5 -6t19.5 -45.5q-4 -38 -4 -72q0 -37 5 -67q10 -58 33 -86t54 -39t63 -4.5t62 25.5q-38 51 -43 92q-5 28 1.5 63t35 67t76.5 32q51 0 79 -40q25 -36 24 -88v-11q-3 -60 -36 -115q43 -30 84 -30q32 -1 63 17q72 40 79 144 q-85 25 -122 73q-18 24 -18 51q0 28 19 60q25 46 77 53q8 1 16 1q41 0 71 -31q40 -43 53 -127q9 0 19 -1q55 0 109 11q63 12 101 37q25 18 49 5q27 -14 27 -42q0 -23 -20 -41q-55 -39 -132 -55q-56 -12 -112 -13q-20 0 -41 2q-5 -48 -23 -90t-48 -77q-29 -34 -77 -52 q-41 -16 -90 -16h-16q-66 3 -129 51q-64 -51 -156 -51h-7q-34 0 -66 10q-34 10 -68.5 35t-55 68t-32.5 108zM358 242q0 -30 17 -58q15 28 12 58q-4 25 -11 31t-12.5 -4t-5.5 -27zM633 382q-4 -5 -3 -10q0 -8 7 -16q3 -2 25 -16q-2 17 -11 35q-6 10 -12 10q-3 0 -6 -3z" />
<glyph unicode="x" horiz-adv-x="868" d="M-76 -508q51 181 168 375t270 360q-63 56 -110 56q-25 0 -59.5 -35.5t-72 -87t-50.5 -64.5q-20 -23 -46.5 -15.5t-34 31.5t10.5 50q17 19 50 63.5t57 74t63.5 54.5t81.5 25q82 0 176 -84q70 70 133 119q15 12 30 12q9 0 18 -4q25 -10 29 -34.5t-17 -47.5q-29 -23 -74 -66 l-47 -47q32 -32 49.5 -48.5t48.5 -40.5t51.5 -33.5t50 -17t54.5 -1t55 24.5t59 51q21 21 48 13t35 -31q3 -7 3 -15q0 -16 -12 -33q-62 -67 -129 -92q-40 -15 -80 -15q-27 1 -53 7q-66 16 -125 55t-119 103l-4 4q-313 -338 -416 -693q-8 -29 -34 -34q-6 -1 -11 -1 q-19 0 -35 14q-14 13 -14 32q0 8 2 16z" />
<glyph unicode="y" horiz-adv-x="684" d="M-2 229q2 51 20 107q9 29 36.5 33.5t46.5 -14.5t10 -48q-16 -49 -16 -89q0 -57 33 -95q33 -39 82 -39q15 0 32 4q83 18 139 119q31 54 47 125q-2 26 20 42q14 9 28 9q10 0 20 -5q25 -10 30 -48q0 -5 18.5 -105.5t26.5 -181.5q10 -81 11 -102q66 25 120 30q30 4 46 -19 q9 -13 9 -29q0 -9 -3 -19q-10 -25 -41 -29q-72 -10 -125 -41q1 -35 1 -68q0 -150 -26 -253q-56 -222 -163 -293q-39 -25 -74 -25q-32 0 -61 20q-62 43 -69 145q-1 10 -1 21q0 85 43 179q100 223 251 327q-5 114 -26 263q-28 -48 -64.5 -83t-74.5 -52.5t-78 -24.5 q-18 -3 -34 -3q-22 0 -42 5q-36 9 -68.5 27t-55.5 49.5t-36 70.5q-12 35 -12 80v10zM289 -652q3 -36 22 -48l17 -1q61 9 109 135q17 45 32 103q23 95 23 227q-48 -45 -88.5 -104.5t-65.5 -116t-38 -107.5q-12 -42 -12 -74q0 -7 1 -14z" />
<glyph unicode="z" horiz-adv-x="569" d="M-10 112q-2 7 -2 15q0 17 12 35q27 29 52 70t39 72.5t36 61.5q23 29 47 43q23 13 60 13h6q42 -1 98 -23q18 -7 35 -8t27.5 1t20.5 7.5t13.5 8t5.5 4.5q23 22 46 22q1 0 1 1q23 0 35 -22t0 -51q-22 -59 -53 -135q-30 -72 -72 -153q90 -33 138 -133q36 21 86 27q21 3 41 2 q27 0 51 -5q35 -4 41 -40q1 -6 1 -12q0 -24 -18 -38q-13 -10 -30 -6q-22 4 -43 4q-54 0 -99 -29q12 -62 12 -129q0 -83 -19 -173q-35 -162 -115 -254q-53 -61 -108 -60q-29 0 -59 16q-68 36 -77 136q-1 15 -1 30q0 86 44 178q81 188 213 297q-40 102 -131 107q-46 4 -52 39 q-5 19 15 47q36 47 104 217h-13q-32 0 -61 8q-34 10 -49 19.5t-32 8t-34 -26t-44 -81.5q-37 -76 -88 -127q-19 -23 -45.5 -15.5t-34.5 31.5zM292 -607q2 -50 30 -65q8 -2 14 -2h4q8 1 18 11.5t18.5 21.5t17.5 28t16 31t14 31t11 27.5t7 19.5l4 10q15 50 25 124q7 53 7 103 q0 20 -1 40q-56 -56 -100 -129t-65 -137q-20 -60 -19 -107q-1 -4 -1 -7z" />
<glyph unicode="{" horiz-adv-x="440" d="M-37 690q0 28 23 41q46 56 63.5 134.5t-2.5 146.5q-24 83 -4 159.5t66 136.5t99.5 97.5t96.5 42.5q30 3 44.5 -19.5t5 -47.5t-39.5 -29q-24 -2 -60 -29.5t-68.5 -71.5t-48.5 -99t1 -112q22 -71 8.5 -166.5t-57.5 -166.5q38 -32 61 -86.5t23 -98.5q0 -18 -3.5 -68 t-6 -94.5t0.5 -100.5t12 -97t32 -72.5t59 -38.5q30 -7 37.5 -33t-9 -47t-46.5 -14q-49 10 -84.5 37t-54 68t-29 84.5t-12 100t0 99.5t4.5 96.5t3 79.5q0 82 -62 115q-23 -6 -38 8t-15 45z" />
<glyph unicode="|" horiz-adv-x="155" d="M16 -176q7 161 9 673t-9 980q0 39 36 53q33 13 52 -10q9 -11 9 -29q10 -333 15 -661.5t1.5 -630t-18.5 -396.5q-5 -30 -29.5 -37.5t-46 10t-19.5 48.5z" />
<glyph unicode="}" horiz-adv-x="440" d="M13 -2.5q-2 17.5 9 34t33 19.5q23 2 52 24.5t56 60t38 87.5t-2 109q-23 76 -1 189t83 177q-78 97 -78 220q0 18 3 65.5t5.5 87.5t-1 91t-13 88t-33.5 66t-60 36q-31 7 -38.5 33t10 47.5t47.5 15.5q43 -9 75.5 -30.5t52 -49.5t32 -66.5t17 -75t6 -82.5t-0.5 -80.5t-4 -78 t-2 -67.5q0 -98 70 -175q32 -6 32 -49q0 -42 -32 -49q-57 -47 -76.5 -129.5t-1.5 -159.5q19 -79 4 -150t-52 -125t-84.5 -87.5t-92.5 -38.5q-22 -2 -36.5 11.5t-16.5 31z" />
<glyph unicode="~" horiz-adv-x="397" d="M-1 265.5q3 15.5 17 27.5q34 29 65.5 38t54.5 1t46.5 -20t42.5 -23.5t42 -10t44 20.5q13 13 29 14t27.5 -7.5t19 -21.5t4.5 -29t-16 -28q-33 -30 -66 -40.5t-58 -4t-50.5 17t-44.5 22t-40.5 12t-37.5 -12.5q-13 -12 -29 -13t-27.5 8t-18.5 21.5t-4 28z" />
<glyph horiz-adv-x="548" />
<glyph horiz-adv-x="0" />
<glyph horiz-adv-x="0" />
<glyph horiz-adv-x="1101" d="M0 203q-1 84 50 145t134 76q73 13 142 -22.5t102 -102.5q63 0 107 20q73 40 114 105q14 18 23 22q12 5 28 5q3 -1 16.5 -2.5t31 -4t34.5 -6.5q104 -22 162 -71q36 -29 59.5 -66t32 -73.5t7.5 -74.5t-15 -70t-35 -59.5t-51 -42.5t-65 -19.5t-76 9.5q-35 13 -65.5 46.5 t-40.5 83t36 102.5q20 23 47.5 16t36 -30t-9.5 -48q-27 -33 3 -61q30 -27 72 -18q37 9 56 47q10 21 11.5 51t-14 68t-48.5 65q-62 48 -168 59q-58 -82 -152 -125q-53 -24 -116 -24q-1 -64 -34.5 -112t-82.5 -71.5t-106 -25t-106.5 19.5t-83.5 70t-36 119zM96 205 q1 -44 27.5 -74t71.5 -41q57 -13 107 25t50 94q0 54 -47 92.5t-104 28.5q-48 -9 -77 -43.5t-28 -81.5z" />
<glyph unicode="&#xa1;" horiz-adv-x="415" d="M-14 -39q-12 -28 5.5 -48t44.5 -17.5t38 30.5q136 359 210 726t78 558q1 18 -8.5 30.5t-23.5 15.5t-28.5 0.5t-24.5 -15t-11 -31.5q-4 -180 -76.5 -539t-203.5 -710zM248 1365.5q-20 38.5 2 79t72 44.5q52 4 72.5 -36t-2 -81.5t-73.5 -42.5q-51 -2 -71 36.5z" />
<glyph unicode="&#xa2;" horiz-adv-x="567" d="M3.5 589q-17.5 78 27.5 169q52 98 207 127l-7 174q-1 19 9 32t24 16t28.5 0.5t24.5 -14.5t11 -30l4 -168q56 -2 93 -17t44 -42q9 -38 -26.5 -54.5t-57.5 9.5q-15 4 -49 8l10 -307q83 17 154 77q23 19 48.5 8t29.5 -35t-17 -46q-99 -83 -213 -103l4 -96q1 -18 -9 -31 t-24 -16t-28.5 -1t-24.5 14.5t-10 31.5l-4 94q-94 11 -162.5 66.5t-86 133.5zM117 568q42 -67 133 -79l-10 299q-99 -25 -123 -75q-42 -78 0 -145z" />
<glyph unicode="&#xa3;" horiz-adv-x="751" d="M-66 733q2 18 16 32t36 13q10 -1 55 -6t68 -6q-65 193 -58.5 332t70 223t182.5 119q109 25 203 1.5t162 -81.5q14 -12 17 -27.5t-4 -28t-18.5 -21.5t-27.5 -8t-29 13q-51 43 -122.5 60.5t-153.5 -2.5q-293 -81 -123 -572q0 -8 4 -16q118 -3 209 18q29 7 46 -13.5 t10.5 -46.5t-36.5 -34q-97 -23 -207 -23q32 -242 -94 -509q65 9 135 -2t124 -29t106 -32.5t99.5 -10t86.5 36.5q24 19 49.5 7.5t29.5 -36.5t-17 -47q-45 -36 -93.5 -50t-94 -9.5t-92.5 18t-96.5 29t-98.5 25.5t-105.5 6t-110.5 -27v2q-22 -14 -43.5 -1t-25 36t13.5 43 q76 120 113.5 271t15.5 286q-17 1 -71.5 6.5t-86.5 7.5q-22 2 -33.5 18.5t-9.5 34.5z" />
<glyph unicode="&#xa5;" horiz-adv-x="1363" d="M5.5 1151.5q11.5 91.5 55.5 163.5q37 61 90 103.5t112.5 62t125 23t127 -15t119 -51.5t100.5 -86t72 -119.5t33.5 -151t-15.5 -181.5q-21 -98 -58 -201t-97.5 -243.5t-81.5 -194.5q-2 -5 -12 -31.5t-14 -37.5t-13 -38t-10.5 -41.5t-5 -38.5t0.5 -39t10.5 -33t20 -30.5 t33.5 -21.5q19 -9 45 -9.5t58 7t68.5 26.5t75.5 47.5t79 72.5t79 98t76.5 127t70 157.5t60.5 192t47 227.5q6 24 23 35q15 9 35 6t31 -18q11 -14 8 -37q0 -3 -6.5 -56t-18 -146.5t-25.5 -210t-32.5 -273.5t-36.5 -310q29 -2 59 -2q30 2 43 -22t2 -48.5t-41 -23.5h-73l-8 -68 q37 -2 73 -2q28 -1 39 -24t-3 -46t-46 -24h-74q-227 -1974 -221 -2105q1 -30 -22.5 -43t-48 -2t-25.5 41q-5 158 182 1775l39 336q-35 2 -72 2q-31 -2 -44.5 22.5t-1.5 49t42 23.5h88l8 65h-90q-28 1 -38.5 25t4 48t47.5 25h90l57 471q-40 -87 -87 -162.5t-95.5 -132 t-100 -100t-100.5 -70t-96 -39.5t-88.5 -11t-75.5 18q-44 20 -71.5 53t-38 69t-8.5 82.5t11.5 88t27 93t33.5 89t35.5 83.5t28.5 70q10 24 35.5 84.5t41 99t38 102.5t34 110.5t19.5 106t3.5 105.5t-21.5 93.5t-49 83.5q-70 78 -153 110.5t-155 21t-132 -49t-93 -92.5 q-39 -65 -47 -134.5t11.5 -123t67.5 -87t114 -30.5q31 1 45 -22t2.5 -47.5t-41.5 -26.5q-112 -5 -184.5 49t-94.5 136t-10.5 173.5z" />
<glyph unicode="&#xa6;" horiz-adv-x="552" />
<glyph unicode="&#xa7;" horiz-adv-x="303" d="M5 717.5q-12 22.5 0.5 45t45.5 23.5h53l-2 43q-1 30 23.5 43.5t49 2.5t24.5 -41v-50h51q31 1 44.5 -21.5t1.5 -45.5t-42 -23h-57q0 -39 -1 -85t-2 -77.5t-1 -35.5q0 -34 -27 -41q-26 -7 -42 19q-8 14 -9 34q-2 10 -6 186h-64q-28 1 -40 23.5z" />
<glyph unicode="&#xa8;" horiz-adv-x="479" d="M99 542q-12 26 4.5 52.5t52.5 26.5q29 0 40 -26.5t-3.5 -52.5t-47.5 -26q-34 0 -46 26zM284.5 542q-12.5 26 3.5 52.5t52 26.5q29 0 40 -26.5t-3 -52.5t-47 -26t-45.5 26z" />
<glyph unicode="&#xa9;" horiz-adv-x="753" d="M-3 403q-2 74 32 148t102 129q61 49 132.5 68.5t138.5 10t130 -40.5t111.5 -78.5t77 -110t32 -129t-28.5 -140.5t-99 -141t-143.5 -96t-146 -20t-130.5 42.5t-107 87.5q-47 55 -73 125.5t-28 144.5zM102 329q19 -74 70 -134q46 -55 107 -80.5t136 -9.5t142 83 q59 58 77.5 130.5t0.5 137t-63.5 117.5t-105.5 80t-134 17t-142 -64q-64 -52 -85.5 -127.5t-2.5 -149.5zM166 383q0 120 86.5 184t196.5 23q29 -11 32 -38t-17 -45t-48 -7q-61 24 -107.5 -10.5t-46.5 -106.5q0 -81 54 -112.5t124 5.5q16 8 31.5 6t25 -13t13.5 -24.5 t-2.5 -28t-22.5 -23.5q-57 -30 -115 -30.5t-102.5 24.5t-73 76.5t-28.5 119.5z" />
<glyph unicode="&#xaa;" horiz-adv-x="743" d="M5.5 1126.5q13.5 78.5 76.5 137.5q64 61 147 69.5t156 -47.5q79 -67 76 -174q3 -46 41 -90.5t79 -49t68 55.5q9 28 35.5 31t45 -16.5t9.5 -47.5q-19 -53 -62 -88t-118 -30q-91 11 -145 100q-8 -12 -29 -33q-47 -44 -112.5 -58.5t-130 7.5t-103.5 78q-47 77 -33.5 155.5z M102.5 1110.5q-8.5 -47.5 16.5 -86.5q31 -43 93 -47t107 37q44 43 45 102.5t-40 93.5q-37 31 -85.5 26.5t-88.5 -42.5q-39 -36 -47.5 -83.5z" />
<glyph unicode="&#xab;" horiz-adv-x="507" d="M8.5 276q-0.5 15 11.5 29l183 182q21 22 47 12.5t32 -34.5t-14 -49q-6 -4 -30.5 -28.5t-59.5 -61t-51 -52.5q18 -19 53.5 -56t59.5 -62t30 -31q20 -21 10.5 -44.5t-34 -28.5t-51.5 14q-11 9 -86.5 89.5t-79.5 84.5q-9 4 -9 10q-11 11 -11.5 26zM229 301q7 3 9 8 q12 11 83 84.5t85 89.5q24 22 51.5 15t34 -29.5t-10.5 -44.5q-6 -6 -30.5 -32t-58 -61t-52.5 -55q135 -141 139 -145q22 -19 14 -46t-32 -35t-49 11q-161 163 -179 183q-24 24 -4 57z" />
<glyph unicode="&#xad;" horiz-adv-x="598" />
<glyph unicode="&#xae;" horiz-adv-x="753" d="M-10 387q6 70 35 137.5t76.5 122t118 88t151.5 33.5q93 0 170.5 -42.5t121.5 -110t67.5 -149t9 -163.5t-53 -149.5t-120.5 -110.5t-191 -43q-102 -1 -181 32t-123.5 88.5t-65 124t-15.5 142.5zM86 379q-4 -56 10.5 -105t47 -89.5t92 -64.5t139.5 -24q65 0 116.5 19.5 t83 53t51 76.5t21 91t-7 96t-33 91t-57 76.5t-79 53t-99.5 19.5q-116 0 -196 -87t-89 -206zM198.5 389.5q2.5 72.5 31.5 128.5t82.5 84.5t129.5 -0.5q33 -12 57.5 -55.5t24.5 -90t-32 -81.5q58 -66 38 -156q-5 -18 -17.5 -27.5t-27 -9t-27.5 7t-20 21t-2 31.5q9 39 -9 60 t-56 38l-9 2q-27 10 -33 33.5t10 43t44 19.5q42 -1 44 31q2 28 -22 45q-35 26 -71 -16l-4 -6q-38 -48 -37 -114t37 -114q18 -25 5 -50t-37.5 -27.5t-45.5 20.5q-15 18 -29 51q-27 59 -24.5 131.5z" />
<glyph unicode="&#xaf;" horiz-adv-x="667" />
<glyph unicode="&#xb0;" horiz-adv-x="464" d="M125 659q0 48 34 82.5t83 34.5t83.5 -34.5t34.5 -82.5q0 -49 -34 -83.5t-84 -34.5q-49 0 -83 34t-34 84zM221 659q0 -9 6.5 -15.5t14.5 -6.5q9 0 15.5 6.5t6.5 15.5q0 8 -6.5 14.5t-15.5 6.5q-8 0 -14.5 -7t-6.5 -14z" />
<glyph unicode="&#xb4;" horiz-adv-x="479" d="M206.5 567q-7.5 17 6.5 47q50 97 57 107q11 15 26.5 19t28.5 -2t23 -17t10 -26.5t-10 -30.5q-15 -21 -31 -46q-42 -47 -51 -57q-12 -15 -32 -13t-27.5 19z" />
<glyph unicode="&#xb5;" horiz-adv-x="552" />
<glyph unicode="&#xb6;" horiz-adv-x="552" />
<glyph unicode="&#xb7;" horiz-adv-x="552" />
<glyph unicode="&#xb8;" horiz-adv-x="552" />
<glyph unicode="&#xb9;" horiz-adv-x="378" d="M23.5 1211q1.5 27 29.5 40q20 8 65 31q116 58 155 59q45 1 42 -51l-57 -1243q-1 -30 -26 -41.5t-48.5 2.5t-21.5 45l53 1166l-123 -58q-28 -12 -49 5.5t-19.5 44.5z" />
<glyph unicode="&#xba;" horiz-adv-x="645" d="M12 1079q-2 80 46.5 141t125.5 74q70 13 137.5 -21.5t98.5 -98.5q95 0 129 55q16 26 43.5 23.5t39.5 -24.5t-1 -50q-58 -94 -189 -101q-2 -61 -34.5 -106.5t-79.5 -67.5t-101.5 -23t-101.5 19t-79 67t-34 113zM109 1081q2 -40 25.5 -68t64.5 -38q53 -12 99.5 23.5 t45.5 86.5q0 51 -44.5 87.5t-96.5 27.5q-43 -9 -69 -41.5t-25 -77.5z" />
<glyph unicode="&#xbb;" horiz-adv-x="507" d="M12 85q8 -27 31 -35t47 11q162 163 182 183q24 27 2 57l-8 8q-8 8 -83.5 86.5t-84.5 87.5q-24 22 -51 15t-33.5 -29.5t9.5 -44.5q3 -3 58.5 -61t84.5 -87q-28 -28 -83 -85t-58 -60q-21 -19 -13 -46zM222 464.5q8 27.5 32 35t49 -12.5q160 -162 178 -182q25 -25 4 -55 q-2 -2 -4.5 -5.5t-3.5 -4.5q-11 -9 -88.5 -90.5t-79.5 -83.5q-24 -21 -51.5 -14t-34.5 29t10 44q60 60 142 149q-17 17 -51 52.5t-58 60.5t-30 29q-22 21 -14 48.5z" />
<glyph unicode="&#xbc;" horiz-adv-x="1900" d="M23.5 1211q1.5 27 29.5 40q20 8 65 31q116 58 155 59q45 1 42 -51l-57 -1243q-1 -30 -26 -41.5t-48.5 2.5t-21.5 45l53 1166l-123 -58q-28 -12 -49 5.5t-19.5 44.5zM389 -143q19 140 170 631t318 982q9 29 35.5 31.5t44 -19t6.5 -50.5q-128 -391 -286 -918.5t-192 -667.5 q-8 -29 -33 -38.5t-46 5t-17 44.5zM1042 455q-13 26 11 53l544 795q26 33 58 22q35 -8 35 -53q0 -25 -2.5 -141.5t-6.5 -305t-6 -319.5q25 2 74 7t74 7q30 4 44.5 -19t5 -48.5t-39.5 -28.5q-64 -6 -160 -12q-7 -341 -12 -377q-3 -30 -28 -39.5t-48 5t-20 44.5q5 36 12 361 h-8q-329 -14 -482 18q-31 0 -45 31zM1171 510q173 -24 408 -10q1 69 6 299.5t6 320.5z" />
<glyph unicode="&#xbd;" horiz-adv-x="1843" d="M23.5 1211q1.5 27 29.5 40q20 8 65 31q116 58 155 59q45 1 42 -51l-57 -1243q-1 -30 -26 -41.5t-48.5 2.5t-21.5 45l53 1166l-123 -58q-28 -12 -49 5.5t-19.5 44.5zM389 -143q19 140 170 631t318 982q9 29 35.5 31.5t44 -19t6.5 -50.5q-128 -391 -286 -918.5t-192 -667.5 q-8 -29 -33 -38.5t-46 5t-17 44.5zM965 940q-4 85 22.5 150.5t73 103.5t105.5 61t121.5 27t118 -2.5t97.5 -22.5q90 -35 154 -103t95.5 -157.5t19.5 -199.5t-64 -224t-164.5 -237.5t-273.5 -233.5l463 -14q30 -1 42 -25.5t-1.5 -48t-44.5 -22.5l-619 18q-45 2 -53.5 34.5 t30.5 55.5q165 96 285.5 200t184.5 198t94.5 186t24 168.5t-34 141t-73 108.5t-100.5 65q-61 23 -132.5 22.5t-134.5 -24t-103.5 -81.5t-36.5 -140q4 -72 44 -120.5t97 -56t123 25.5q26 17 49.5 2t23 -40t-25.5 -44q-71 -42 -144 -42t-128.5 34t-93 96.5t-41.5 140.5z" />
<glyph unicode="&#xbe;" horiz-adv-x="2410" d="M24 435q22 51 68 83q50 35 82 2q24 -24 15 -55t-46 -29q-68 -62 -33 -166.5t145 -156t286 1.5q82 30 137.5 91t72.5 133t6 144.5t-62.5 133.5t-133.5 92q-91 32 -176 32q-28 -3 -47 19q-24 31 8 71l242 347l-326 -9q-30 -1 -42.5 23t-1 48.5t41.5 25.5l412 10 q42 0 53 -25q14 -26 -8 -59l-252 -361q120 -18 209 -75t132.5 -133t51.5 -166t-21 -172t-97.5 -152.5t-166.5 -107.5q-215 -81 -382 13q-113 63 -162 182q-48 118 -5 215zM899 -143q19 140 170 633t317 980q9 29 35.5 31.5t44.5 -19t7 -50.5q-128 -391 -286 -918.5 t-192 -667.5q-8 -29 -33 -38.5t-46 5t-17 44.5zM1554 455q-13 26 11 53l544 795q26 33 58 22q35 -8 35 -53q0 -25 -2.5 -141.5t-6.5 -305t-6 -319.5q24 2 73.5 7t74.5 7q30 4 44.5 -19t5 -48.5t-39.5 -28.5q-64 -6 -160 -12q-7 -341 -12 -377q-3 -30 -28 -39.5t-48 5 t-20 44.5q5 36 12 361h-8q-329 -14 -482 18q-31 0 -45 31zM1683 510q173 -24 408 -10q1 69 6 299.5t6 320.5z" />
<glyph unicode="&#xbf;" horiz-adv-x="835" d="M-8 238q-2 -194 128 -312q111 -100 268 -106q167 -5 294 101q57 49 98 116q113 188 59 351q-37 114 -137 171q-101 58 -202 22q-117 -41 -166 -190l-4 -12l-13 -49q-7 -29 15.5 -45t49 -8t30.5 38q21 129 107 167q71 33 143 -11q76 -45 93 -141q21 -112 -57 -242 q-34 -55 -84.5 -94.5t-106.5 -57t-116 -18.5t-112.5 19.5t-96 57.5t-67 96t-25.5 134t29 172q41 125 103 219.5t149 192.5q88 100 117 143q58 88 61 168q0 30 -23.5 42.5t-47.5 1t-25 -41.5q0 -21 -9 -46t-19 -43t-31.5 -46.5t-31 -40t-36 -41t-29.5 -33.5 q-302 -347 -305 -634zM434 1286.5q-20 38.5 1.5 78.5t72.5 44t72 -35.5t-1.5 -81t-74.5 -43.5q-50 -1 -70 37.5z" />
<glyph unicode="&#xc0;" horiz-adv-x="1359" d="M2 674q1 -124 37.5 -245t101.5 -219t166 -159t219 -61q147 0 279.5 80t232.5 233l39 -283q3 -18 15 -29t26.5 -11.5t28.5 5t22 19.5t5 33q-25 138 -50 422q83 194 111 420q36 311 -113 311q-116 0 -116 -287q-8 -187 16 -430q-83 -174 -206.5 -280.5t-289.5 -106.5 q-119 0 -218.5 83t-154.5 217.5t-57 287.5q0 90 21 180t61 172t100.5 152t134.5 120.5t168 78t197 24.5q136 -3 260.5 -47.5t202.5 -134.5l23 -27q9 -16 23.5 -22.5t28 -2.5t25 13.5t13.5 25t-6 31.5q-39 67 -127 131q-120 84 -261.5 115.5t-275.5 11.5t-260 -88 t-219.5 -171t-149 -249.5t-53.5 -312.5zM587 1726q13 25 38 27.5t45 -20.5q7 -10 28 -52t27 -53q9 -17 9.5 -31t-6 -22t-16.5 -12t-21 -1t-19 11q-10 12 -25 29.5t-24 29.5l-31 45q-18 24 -5 49zM1104 711q-18 322 22 383q16 -12 19 -63.5t0 -85t-6 -54.5q-14 -99 -35 -180z " />
<glyph unicode="&#xc1;" horiz-adv-x="1359" d="M2 674q-2 166 53.5 312.5t149 249.5t219.5 171t260 88t275.5 -11.5t261.5 -115.5q88 -64 127 -131q8 -16 6 -31.5t-13.5 -25t-25 -13.5t-28 2.5t-23.5 22.5q-7 11 -23 27q-78 90 -202.5 134.5t-260.5 47.5q-103 3 -197 -24.5t-168 -78t-134.5 -120.5t-100.5 -152 t-61 -172t-21 -180q2 -153 57 -287.5t154.5 -217.5t218.5 -83q166 0 289.5 106.5t206.5 280.5q-24 243 -16 430q0 287 116 287q149 0 113 -311q-28 -226 -111 -420q25 -284 50 -422q3 -19 -5 -33t-22 -19.5t-28.5 -5t-26.5 11.5t-15 29q-19 117 -39 283 q-100 -153 -232.5 -233t-279.5 -80q-118 0 -219 61t-166 159t-101.5 219t-37.5 245zM742.5 1571q-7.5 17 5.5 47q48 94 57 106q18 24 45.5 19.5t38.5 -27t-4 -49.5q-17 -20 -35 -43q-23 -33 -49 -59q-12 -15 -31.5 -13t-27 19zM1104 711q21 81 35 180q3 21 6 54.5t0 85 t-19 63.5q-40 -61 -22 -383z" />
<glyph unicode="&#xc2;" horiz-adv-x="1359" d="M2 674q-2 166 53.5 312.5t149 249.5t219.5 171t260 88t275.5 -11.5t261.5 -115.5q88 -64 127 -131q8 -16 6 -31.5t-13.5 -25t-25 -13.5t-28 2.5t-23.5 22.5q-7 11 -23 27q-78 90 -202.5 134.5t-260.5 47.5q-103 3 -197 -24.5t-168 -78t-134.5 -120.5t-100.5 -152 t-61 -172t-21 -180q2 -153 57 -287.5t154.5 -217.5t218.5 -83q166 0 289.5 106.5t206.5 280.5q-24 243 -16 430q0 287 116 287q149 0 113 -311q-28 -226 -111 -420q25 -284 50 -422q3 -19 -5 -33t-22 -19.5t-28.5 -5t-26.5 11.5t-15 29q-19 117 -39 283 q-100 -153 -232.5 -233t-279.5 -80q-118 0 -219 61t-166 159t-101.5 219t-37.5 245zM589.5 1602.5q-2.5 25.5 20.5 46.5q110 77 133 77q12 0 34 -11t40.5 -23.5t38.5 -26.5t23 -16q15 -11 19.5 -27t-1.5 -29.5t-17 -23.5t-26.5 -10t-30.5 10q-68 51 -80 61q-33 -33 -75 -61 q-25 -18 -50.5 -5t-28 38.5zM1104 711q21 81 35 180q3 21 6 54.5t0 85t-19 63.5q-40 -61 -22 -383z" />
<glyph unicode="&#xc3;" horiz-adv-x="1359" d="M2 674q-2 166 53.5 312.5t149 249.5t219.5 171t260 88t275.5 -11.5t261.5 -115.5q88 -64 127 -131q8 -16 6 -31.5t-13.5 -25t-25 -13.5t-28 2.5t-23.5 22.5q-7 11 -23 27q-78 90 -202.5 134.5t-260.5 47.5q-103 3 -197 -24.5t-168 -78t-134.5 -120.5t-100.5 -152 t-61 -172t-21 -180q2 -153 57 -287.5t154.5 -217.5t218.5 -83q166 0 289.5 106.5t206.5 280.5q-24 243 -16 430q0 287 116 287q149 0 113 -311q-28 -226 -111 -420q25 -284 50 -422q3 -19 -5 -33t-22 -19.5t-28.5 -5t-26.5 11.5t-15 29q-19 117 -39 283 q-100 -153 -232.5 -233t-279.5 -80q-118 0 -219 61t-166 159t-101.5 219t-37.5 245zM588 1656q11 25 41 27q19 1 81 4t89.5 3.5t75 -4t88.5 -15.5q29 -8 34 -34.5t-13 -47t-46 -12.5q-29 8 -58.5 12.5t-64.5 4.5t-57 -1t-65.5 -4t-59.5 -4q-30 -1 -43 22.5t-2 48.5z M1104 711q21 81 35 180q3 21 6 54.5t0 85t-19 63.5q-40 -61 -22 -383z" />
<glyph unicode="&#xc4;" horiz-adv-x="1359" d="M2 674q-2 166 53.5 312.5t149 249.5t219.5 171t260 88t275.5 -11.5t261.5 -115.5q88 -64 127 -131q8 -16 6 -31.5t-13.5 -25t-25 -13.5t-28 2.5t-23.5 22.5q-7 11 -23 27q-78 90 -202.5 134.5t-260.5 47.5q-103 3 -197 -24.5t-168 -78t-134.5 -120.5t-100.5 -152 t-61 -172t-21 -180q2 -153 57 -287.5t154.5 -217.5t218.5 -83q166 0 289.5 106.5t206.5 280.5q-24 243 -16 430q0 287 116 287q149 0 113 -311q-28 -226 -111 -420q25 -284 50 -422q3 -19 -5 -33t-22 -19.5t-28.5 -5t-26.5 11.5t-15 29q-19 117 -39 283 q-100 -153 -232.5 -233t-279.5 -80q-118 0 -219 61t-166 159t-101.5 219t-37.5 245zM653 1598.5q-12 25.5 4 51t52 25.5q29 0 40 -25.5t-3.5 -51t-47.5 -25.5t-45 25.5zM836 1606q-9 33 17 55q17 14 42 14q28 0 39 -25.5t-3.5 -51t-47.5 -25.5q-38 0 -47 33zM1104 711 q21 81 35 180q3 21 6 54.5t0 85t-19 63.5q-40 -61 -22 -383z" />
<glyph unicode="&#xc5;" horiz-adv-x="1359" d="M2 674q-2 166 53.5 312.5t149 249.5t219.5 171t260 88t275.5 -11.5t261.5 -115.5q88 -64 127 -131q8 -16 6 -31.5t-13.5 -25t-25 -13.5t-28 2.5t-23.5 22.5q-7 11 -23 27q-78 90 -202.5 134.5t-260.5 47.5q-103 3 -197 -24.5t-168 -78t-134.5 -120.5t-100.5 -152 t-61 -172t-21 -180q2 -153 57 -287.5t154.5 -217.5t218.5 -83q166 0 289.5 106.5t206.5 280.5q-24 243 -16 430q0 287 116 287q149 0 113 -311q-28 -226 -111 -420q25 -284 50 -422q3 -19 -5 -33t-22 -19.5t-28.5 -5t-26.5 11.5t-15 29q-19 117 -39 283 q-100 -153 -232.5 -233t-279.5 -80q-118 0 -219 61t-166 159t-101.5 219t-37.5 245zM684 1686q0 49 34.5 83.5t84.5 34.5q49 0 83 -34t34 -84t-34 -83.5t-83 -33.5q-50 0 -84.5 34t-34.5 83zM782 1686q0 -9 6 -16t15 -7t14.5 7t5.5 16q0 20 -20 20q-21 0 -21 -20zM1104 711 q21 81 35 180q3 21 6 54.5t0 85t-19 63.5q-40 -61 -22 -383z" />
<glyph unicode="&#xc6;" horiz-adv-x="1785" d="M-2 674q-1 166 54.5 312.5t149 249.5t219.5 171t260 88t275.5 -11.5t262.5 -115.5q88 -64 127 -131q1 -2 3 -7t3 -7q51 123 177 197t267 63q31 -3 42 -28t-3.5 -48t-44.5 -21q-180 13 -277 -96t-73 -270q3 -23 8.5 -43t7 -28t3.5 -14.5t-5 -10t-14 -7.5t-29.5 -15 t-46.5 -25q-195 -111 -195 -383q1 -97 34.5 -178.5t91 -133.5t128.5 -80.5t152 -24t156 41.5q32 16 55 39q20 23 48.5 17.5t37.5 -28t-8 -47.5q-3 -4 -9 -8q-59 -65 -160.5 -88t-205.5 -14q-115 10 -201.5 67t-138.5 146q16 -141 22 -166q5 -31 -17 -47.5t-47.5 -8 t-29.5 38.5q-23 117 -41 283q-100 -153 -232.5 -233t-277.5 -80q-96 0 -181 39.5t-147 107.5t-107.5 155.5t-68.5 185.5t-24 196zM94 674q2 -153 57.5 -287.5t155 -217.5t219.5 -83q86 0 162.5 30.5t137 85.5t107.5 122t85 149q-22 259 -17 430q0 5 1 27.5t2 36.5t3.5 40 t6.5 44t9.5 41t14.5 39t20 30.5t27 21.5t35 7q46 0 75 -30.5t36.5 -74.5t10 -92.5t-4.5 -85.5q49 46 104 74q-29 103 -4 199q-14 -15 -38 -13.5t-37 25.5q-9 11 -21 27q-78 90 -203.5 134.5t-261.5 47.5q-103 3 -197 -24.5t-168 -78t-134.5 -120.5t-100.5 -152t-61 -172 t-21 -180zM1102 711q27 106 35 180q3 19 5.5 54.5t-0.5 86t-18 62.5q-40 -61 -22 -383z" />
<glyph unicode="&#xc7;" horiz-adv-x="1159" d="M2 653q-21 148 8.5 297t100.5 271.5t192.5 206.5t271.5 100q92 10 201.5 -8.5t147.5 -44.5q15 -11 18.5 -27t-2.5 -29.5t-17 -23.5t-26.5 -10t-30.5 10q-18 14 -109 30t-169 7q-121 -13 -217.5 -73t-155.5 -149t-90.5 -200.5t-32 -227t28.5 -229.5t83.5 -207.5 t140.5 -160.5t192 -89l8 76q4 31 29.5 41t48 -5.5t18.5 -45.5l-8 -76h10q95 1 174.5 28.5t127 67.5t74.5 79.5t32 72.5q4 22 21.5 32.5t35 7.5t30.5 -18.5t9 -38.5q-16 -98 -93.5 -175t-191.5 -116t-239 -32l-15 -115q-3 -22 -19.5 -33.5t-34.5 -9.5t-31.5 17t-10.5 38 l14 115q-93 19 -175.5 65.5t-154.5 123t-122.5 194t-71.5 264.5z" />
<glyph unicode="&#xc8;" horiz-adv-x="712" d="M0 492q1 -89 27 -172.5t75 -154.5t130.5 -118t183.5 -57q104 -9 205.5 14t160.5 88l9 8q19 23 7.5 47.5t-37 28t-48.5 -17.5q-17 -20 -56 -39q-75 -37 -156 -41.5t-152 24t-128 80.5t-90.5 133.5t-34.5 178.5q0 272 195 383q24 14 46.5 25t29.5 15t14 7.5t5 10t-3.5 14.5 t-7 28t-8.5 43q-24 161 73 270t277 96q23 -1 37.5 13t15.5 32t-11 34t-34 18q-101 7 -198.5 -29.5t-164.5 -105.5t-97 -164t3 -203q-131 -66 -199.5 -200t-68.5 -289zM513 1722.5q13 24.5 38 27.5t45 -19q14 -20 55 -105q16 -28 7.5 -47.5t-27 -19.5t-33.5 12 q-9 12 -24.5 29.5t-24.5 29.5l-31 45q-18 23 -5 47.5z" />
<glyph unicode="&#xc9;" horiz-adv-x="712" d="M0 492q0 155 68.5 289t199.5 200q-33 108 -3 203t97 164t164.5 105.5t198.5 29.5q22 -2 34 -18t11 -34t-15.5 -32t-37.5 -13q-180 13 -277 -96t-73 -270q3 -23 8.5 -43t7 -28t3.5 -14.5t-5 -10t-14 -7.5t-29.5 -15t-46.5 -25q-195 -111 -195 -383q1 -97 34.5 -178.5 t90.5 -133.5t128 -80.5t152 -24t156 41.5q39 19 56 39q20 23 48.5 17.5t37.5 -28t-8 -47.5q-3 -4 -9 -8q-59 -65 -160.5 -88t-205.5 -14q-102 10 -183.5 57t-130.5 118t-75 154.5t-27 172.5zM670.5 1571q-7.5 17 5.5 47q48 94 57 106q18 24 45.5 19.5t38 -27t-5.5 -49.5 q-15 -20 -33 -43q-23 -33 -49 -59q-12 -15 -31.5 -13t-27 19z" />
<glyph unicode="&#xca;" horiz-adv-x="712" d="M0 492q0 155 68.5 289t199.5 200q-33 108 -3 203t97 164t164.5 105.5t198.5 29.5q22 -2 34 -18t11 -34t-15.5 -32t-37.5 -13q-180 13 -277 -96t-73 -270q3 -23 8.5 -43t7 -28t3.5 -14.5t-5 -10t-14 -7.5t-29.5 -15t-46.5 -25q-195 -111 -195 -383q1 -97 34.5 -178.5 t90.5 -133.5t128 -80.5t152 -24t156 41.5q39 19 56 39q20 23 48.5 17.5t37.5 -28t-8 -47.5q-3 -4 -9 -8q-59 -65 -160.5 -88t-205.5 -14q-102 10 -183.5 57t-130.5 118t-75 154.5t-27 172.5zM447.5 1602.5q-2.5 25.5 19.5 46.5q2 1 36 24t60.5 38t38.5 15q8 0 20.5 -5 t25 -12.5t28 -17.5t25.5 -17.5t21.5 -16t12.5 -8.5q25 -18 20.5 -46.5t-27 -38.5t-48.5 5q-68 51 -78 61q-41 -35 -80 -61q-24 -18 -48 -5t-26.5 38.5z" />
<glyph unicode="&#xcb;" horiz-adv-x="712" d="M0 492q0 155 68.5 289t199.5 200q-33 108 -3 203t97 164t164.5 105.5t198.5 29.5q22 -2 34 -18t11 -34t-15.5 -32t-37.5 -13q-180 13 -277 -96t-73 -270q3 -23 8.5 -43t7 -28t3.5 -14.5t-5 -10t-14 -7.5t-29.5 -15t-46.5 -25q-195 -111 -195 -383q1 -97 34.5 -178.5 t90.5 -133.5t128 -80.5t152 -24t156 41.5q39 19 56 39q20 23 48.5 17.5t37.5 -28t-8 -47.5q-3 -4 -9 -8q-59 -65 -160.5 -88t-205.5 -14q-102 10 -183.5 57t-130.5 118t-75 154.5t-27 172.5zM471 1606q-9 33 17 55q17 14 42 14q29 0 39.5 -25.5t-4 -51t-47.5 -25.5 q-38 0 -47 33zM655 1606q-8 33 18 55q17 14 42 14q28 0 39 -25.5t-3.5 -51t-48.5 -25.5q-38 0 -47 33z" />
<glyph unicode="&#xcc;" horiz-adv-x="888" d="M-315.5 146.5q-6.5 -71.5 51.5 -132.5q72 -76 219.5 -98.5t313 20.5t276.5 142q45 41 67 69q97 -74 158.5 -164.5t71.5 -154.5q6 -30 31.5 -38t47.5 8t17 46q-15 83 -85 188.5t-181 190.5q187 268 170 692q-7 177 -60 316t-143 210t-197 50q-71 -14 -123.5 -70.5 t-78.5 -136.5t-27 -180.5t24.5 -201t84 -200.5t143.5 -176q23 -20 49 -10t31 34.5t-15 47.5q-83 74 -136 164t-70.5 174t-14.5 165.5t25.5 143.5t56 103t70.5 49q34 7 70.5 -6t72.5 -50.5t65.5 -93.5t49.5 -143.5t24 -192.5q20 -388 -151 -635q-182 110 -399 113 q-303 6 -435 -113q-67 -58 -73.5 -129.5zM-220 125q-5 39 40 78q79 68 216.5 85t269.5 -9t224 -78q-140 -153 -364 -186q-164 -25 -287 21q-91 35 -99 89zM349 1726q13 25 38 27.5t45 -20.5q6 -8 16.5 -27t23 -43.5t17.5 -34.5q15 -27 6.5 -47t-27 -20t-32.5 12 q-10 12 -26 29.5t-25 29.5l-31 45q-18 24 -5 49z" />
<glyph unicode="&#xcd;" horiz-adv-x="888" d="M-315.5 146.5q6.5 71.5 73.5 129.5q132 119 435 113q217 -3 399 -113q171 247 151 635q-4 105 -24 192.5t-49.5 143.5t-65.5 93.5t-72.5 50.5t-70.5 6q-37 -8 -70.5 -49t-56 -103t-25.5 -143.5t14.5 -165.5t70.5 -174t136 -164q22 -20 15 -47t-30.5 -35t-49.5 10 q-85 76 -143.5 176t-84 200.5t-24.5 201t27 180.5t78.5 136.5t123.5 70.5q107 21 197 -50t143 -210t60 -316q17 -424 -170 -692q111 -85 181 -190.5t85 -188.5q5 -30 -17 -46t-47.5 -8t-31.5 38q-10 64 -71.5 154.5t-158.5 164.5q-22 -28 -67 -69q-111 -99 -276.5 -142 t-313 -20.5t-219.5 98.5q-58 61 -51.5 132.5zM-198.5 84q53.5 -57 187.5 -73q180 -21 347 52q114 50 194 138q-92 52 -224 78t-269.5 9t-216.5 -85q-72 -62 -18.5 -119zM462.5 1571q-7.5 17 6.5 47q48 94 57 106q18 24 45.5 19.5t38 -27t-5.5 -49.5q-15 -20 -33 -43 q-23 -33 -49 -59q-12 -15 -32 -13t-27.5 19z" />
<glyph unicode="&#xce;" horiz-adv-x="888" d="M-315.5 146.5q6.5 71.5 73.5 129.5q132 119 435 113q217 -3 399 -113q171 247 151 635q-4 105 -24 192.5t-49.5 143.5t-65.5 93.5t-72.5 50.5t-70.5 6q-37 -8 -70.5 -49t-56 -103t-25.5 -143.5t14.5 -165.5t70.5 -174t136 -164q22 -20 15 -47t-30.5 -35t-49.5 10 q-85 76 -143.5 176t-84 200.5t-24.5 201t27 180.5t78.5 136.5t123.5 70.5q107 21 197 -50t143 -210t60 -316q17 -424 -170 -692q111 -85 181 -190.5t85 -188.5q5 -30 -17 -46t-47.5 -8t-31.5 38q-10 64 -71.5 154.5t-158.5 164.5q-22 -28 -67 -69q-111 -99 -276.5 -142 t-313 -20.5t-219.5 98.5q-58 61 -51.5 132.5zM-198.5 84q53.5 -57 187.5 -73q180 -21 347 52q114 50 194 138q-92 52 -224 78t-269.5 9t-216.5 -85q-72 -62 -18.5 -119zM330.5 1602.5q-2.5 25.5 19.5 46.5q110 77 135 77q11 0 32.5 -11t40 -23.5t38 -26.5t22.5 -16 q25 -18 20.5 -46.5t-27 -38.5t-48.5 5q-68 51 -78 61q-45 -38 -79 -61q-24 -18 -48.5 -5t-27 38.5z" />
<glyph unicode="&#xcf;" horiz-adv-x="888" d="M-315.5 146.5q6.5 71.5 73.5 129.5q132 119 435 113q217 -3 399 -113q171 247 151 635q-4 105 -24 192.5t-49.5 143.5t-65.5 93.5t-72.5 50.5t-70.5 6q-37 -8 -70.5 -49t-56 -103t-25.5 -143.5t14.5 -165.5t70.5 -174t136 -164q22 -20 15 -47t-30.5 -35t-49.5 10 q-85 76 -143.5 176t-84 200.5t-24.5 201t27 180.5t78.5 136.5t123.5 70.5q107 21 197 -50t143 -210t60 -316q17 -424 -170 -692q111 -85 181 -190.5t85 -188.5q5 -30 -17 -46t-47.5 -8t-31.5 38q-10 64 -71.5 154.5t-158.5 164.5q-22 -28 -67 -69q-111 -99 -276.5 -142 t-313 -20.5t-219.5 98.5q-58 61 -51.5 132.5zM-198.5 84q53.5 -57 187.5 -73q180 -21 347 52q114 50 194 138q-92 52 -224 78t-269.5 9t-216.5 -85q-72 -62 -18.5 -119zM330 1606q-9 33 17 55q17 14 42 14q28 0 39 -25.5t-3.5 -51t-47.5 -25.5q-38 0 -47 33zM513 1606 q-9 33 17 55q17 14 43 14q28 0 39 -25.5t-3.5 -51t-47.5 -25.5q-39 0 -48 33z" />
<glyph unicode="&#xd0;" horiz-adv-x="479" d="M-14.5 -1.5q-5.5 25.5 14.5 52.5q8 8 195.5 192.5t195.5 192.5q21 22 48.5 14t35 -31.5t-11.5 -47.5q-382 -382 -402 -400q-21 -20 -45.5 -9t-30 36.5z" />
<glyph unicode="&#xd1;" horiz-adv-x="1783" d="M23.5 1268q43.5 132 173.5 235q81 64 183 94t205 21.5t199 -46t173 -110t118 -168.5q76 -181 101 -417q74 171 186.5 273t253.5 91q76 -6 128.5 -42t77.5 -88.5t34 -122.5t3 -139t-21 -143.5t-31.5 -130t-34.5 -104.5q-195 -513 4 -545q22 -4 31.5 -21.5t6 -35t-18 -30.5 t-36.5 -9q-312 54 -78 674q126 338 69 518q-34 108 -124 123q-95 16 -200 -75q-135 -116 -201 -339q-21 -68 -33 -143q0 -254 -41 -492q-3 -18 -15 -28.5t-26 -10.5t-27 6t-21.5 20t-6.5 32q33 172 37 403q1 9 1 35.5t1 34.5q4 404 -109 667q-77 181 -256 241 q-158 53 -331 -3q-157 -51 -240 -165q-103 -142 -37 -312q46 -113 164 -223q23 -20 15.5 -47t-31.5 -34.5t-50 11.5q-139 128 -189 270.5t-6.5 274.5zM1325.5 1462.5q10.5 24.5 40.5 26.5q20 1 66.5 4t70.5 4t61.5 0.5t70 -5t65.5 -13.5q30 -8 35.5 -34.5t-13 -47 t-47.5 -11.5q-35 9 -78 12.5t-71 3t-81 -4t-73 -4.5q-30 -1 -43.5 22t-3 47.5z" />
<glyph unicode="&#xd2;" horiz-adv-x="1630" d="M10 721q7 -269 167.5 -459t424.5 -252q118 -25 234 -19t215.5 49.5t188.5 106.5t152.5 151t107 183.5t52.5 204t-11 212t-83.5 208t-165.5 192.5q-119 103 -265.5 151.5t-288.5 42.5t-277.5 -63t-236.5 -153.5t-160.5 -241t-53.5 -313.5zM104 725q-4 148 48 274t141 210 t207.5 133.5t243.5 54.5t254 -37.5t233 -132.5q90 -77 145.5 -168.5t72.5 -182t8.5 -184.5t-47.5 -177t-95 -159.5t-134 -131t-165.5 -92.5t-188 -43.5t-202.5 15.5q-233 54 -373.5 220t-147.5 401zM626 1726q13 25 38 27.5t45 -20.5q17 -21 57 -105q15 -27 6.5 -47t-27 -20 t-32.5 12q-7 9 -23.5 27.5t-25.5 31.5l-33 45q-18 24 -5 49z" />
<glyph unicode="&#xd3;" horiz-adv-x="1630" d="M10 721q-6 169 53.5 313.5t160.5 241t236.5 153.5t277.5 63t288.5 -42.5t265.5 -151.5q102 -88 165.5 -192.5t83.5 -208t11 -212t-52.5 -204t-107 -183.5t-152.5 -151t-188.5 -106.5t-215.5 -49.5t-234 19q-264 62 -424.5 252t-167.5 459zM104 725q7 -235 147.5 -401 t373.5 -220q102 -21 202.5 -15.5t188 43.5t165.5 92.5t134 131t95 159.5t47.5 177t-8.5 184.5t-72.5 182t-145.5 168.5q-104 90 -233 132.5t-254 37.5t-243.5 -54.5t-207.5 -133.5t-141 -210t-48 -274zM742.5 1571q-7.5 17 5.5 47q48 94 57 106q18 24 45.5 19.5t38.5 -27 t-4 -49.5q-17 -20 -35 -43q-23 -33 -49 -59q-12 -15 -31.5 -13t-27 19z" />
<glyph unicode="&#xd4;" horiz-adv-x="1630" d="M10 721q-6 169 53.5 313.5t160.5 241t236.5 153.5t277.5 63t288.5 -42.5t265.5 -151.5q102 -88 165.5 -192.5t83.5 -208t11 -212t-52.5 -204t-107 -183.5t-152.5 -151t-188.5 -106.5t-215.5 -49.5t-234 19q-264 62 -424.5 252t-167.5 459zM104 725q7 -235 147.5 -401 t373.5 -220q102 -21 202.5 -15.5t188 43.5t165.5 92.5t134 131t95 159.5t47.5 177t-8.5 184.5t-72.5 182t-145.5 168.5q-104 90 -233 132.5t-254 37.5t-243.5 -54.5t-207.5 -133.5t-141 -210t-48 -274zM589.5 1602.5q-2.5 25.5 20.5 46.5q110 77 133 77q12 0 34 -11 t40.5 -23.5t38.5 -26.5t23 -16q15 -11 19.5 -27t-1.5 -29.5t-17 -23.5t-26.5 -10t-30.5 10q-68 51 -80 61q-33 -33 -75 -61q-25 -18 -50.5 -5t-28 38.5z" />
<glyph unicode="&#xd5;" horiz-adv-x="1630" d="M10 721q-6 169 53.5 313.5t160.5 241t236.5 153.5t277.5 63t288.5 -42.5t265.5 -151.5q102 -88 165.5 -192.5t83.5 -208t11 -212t-52.5 -204t-107 -183.5t-152.5 -151t-188.5 -106.5t-215.5 -49.5t-234 19q-264 62 -424.5 252t-167.5 459zM104 725q7 -235 147.5 -401 t373.5 -220q102 -21 202.5 -15.5t188 43.5t165.5 92.5t134 131t95 159.5t47.5 177t-8.5 184.5t-72.5 182t-145.5 168.5q-104 90 -233 132.5t-254 37.5t-243.5 -54.5t-207.5 -133.5t-141 -210t-48 -274zM584 1656q11 25 41 27q19 1 81 4t89.5 3.5t74.5 -4t88 -15.5 q29 -8 35 -34.5t-12 -47t-47 -12.5t-58.5 12.5t-64.5 4.5t-57 -1t-65.5 -4t-59.5 -4q-30 -1 -43 22.5t-2 48.5z" />
<glyph unicode="&#xd6;" horiz-adv-x="1630" d="M10 721q-6 169 53.5 313.5t160.5 241t236.5 153.5t277.5 63t288.5 -42.5t265.5 -151.5q102 -88 165.5 -192.5t83.5 -208t11 -212t-52.5 -204t-107 -183.5t-152.5 -151t-188.5 -106.5t-215.5 -49.5t-234 19q-264 62 -424.5 252t-167.5 459zM104 725q7 -235 147.5 -401 t373.5 -220q102 -21 202.5 -15.5t188 43.5t165.5 92.5t134 131t95 159.5t47.5 177t-8.5 184.5t-72.5 182t-145.5 168.5q-104 90 -233 132.5t-254 37.5t-243.5 -54.5t-207.5 -133.5t-141 -210t-48 -274zM653 1598.5q-12 25.5 4 51t52 25.5q29 0 40 -25.5t-3.5 -51 t-47.5 -25.5t-45 25.5zM836 1606q-9 33 17 55q17 14 42 14q28 0 39 -25.5t-3.5 -51t-47.5 -25.5q-38 0 -47 33z" />
<glyph unicode="&#xd7;" d="M31 162.5q-6 24.5 14 48.5l55 55l-36 36l-19 20q-19 21 -8 46t35.5 30t50.5 -15q4 -2 47 -45q34 39 43 45q24 22 52 15t35.5 -30t-9.5 -46l-19 -20q-18 -20 -34 -36q16 -16 34 -36l19 -19q23 -21 15 -48.5t-32 -35t-49 11.5l-55 58l-59 -58q-21 -21 -47.5 -11t-32.5 34.5 z" />
<glyph unicode="&#xd8;" horiz-adv-x="1583" d="M10 721q-6 165 50.5 306.5t153 237.5t227 155.5t269 70.5t283 -29.5t264.5 -132.5q10 12 22 25t26 28t22 23q26 29 62 12q30 -13 29 -41q0 -15 -13 -28q-62 -68 -76 -82q103 -99 160.5 -217t64.5 -232.5t-20 -231.5t-91.5 -214t-151 -181t-199 -131.5t-234 -65.5 t-256.5 17q-200 47 -342 170q-55 -49 -84 -69q-16 -11 -31 -11.5t-25 9.5t-15 22.5t-1 29t17 29.5q9 7 31.5 29.5t33.5 32.5q-170 192 -176 469zM104 725q9 -239 152 -408q497 488 934 943q-105 77 -230.5 110.5t-246 23.5t-234 -61.5t-197.5 -134.5t-133 -206.5t-45 -266.5 zM332 246q123 -101 293 -142q116 -30 221.5 -14.5t203.5 56.5t174 113.5t133.5 156.5t82 185.5t19 201t-55 203t-139.5 190.5q-239 -255 -501.5 -523t-430.5 -427z" />
<glyph unicode="&#xd9;" horiz-adv-x="1001" d="M-509.5 1123q-5.5 -73 15.5 -150q29 -95 94 -153.5t139.5 -72t151 7.5t129.5 74q20 21 11 47.5t-32.5 33t-47.5 -12.5q-49 -50 -120 -59.5t-138 32.5t-94 131q-28 90 3 179t114.5 151.5t197.5 73.5q116 10 223.5 -53t158 -182t-0.5 -285q-15 -44 -50.5 -120t-66.5 -140.5 t-58.5 -146.5t-36 -149.5t10.5 -137t72 -121.5q65 -64 143.5 -73t150.5 25t145.5 98.5t129.5 135t101 145.5q-10 -207 18 -331q4 -17 16.5 -26.5t27 -9t28 7t20.5 21t2 31.5q-28 122 -16 338.5t47 323.5l190 551q9 29 -10 48t-46 14.5t-36 -32.5q-186 -559 -274 -784 q-18 -46 -61 -116t-106 -147.5t-132.5 -130.5t-140 -66t-130.5 46q-46 46 -53 118.5t19.5 157t59.5 160t73 158.5t53 121q65 207 0.5 355t-200 227t-279.5 65q-84 -8 -158.5 -41t-128 -83.5t-88.5 -115.5t-40.5 -138zM568 1640q13 25 38 28t45 -19q27 -39 58 -107 q15 -27 6 -46.5t-27.5 -19.5t-32.5 13q-43 49 -49 57l-33 45q-18 24 -5 49z" />
<glyph unicode="&#xda;" horiz-adv-x="1001" d="M-509.5 1123q5.5 73 40.5 138t88.5 115.5t128 83.5t158.5 41q144 14 279.5 -65t200 -227t-0.5 -355q-13 -38 -53 -121t-73 -158.5t-59.5 -160t-19.5 -157t53 -118.5q60 -59 130.5 -46t140 66t132.5 130.5t106 147.5t61 116q39 100 107.5 296t117.5 342l49 146 q9 28 36 32.5t46 -14.5t10 -48q-188 -549 -190 -551q-35 -107 -47 -324.5t16 -337.5q5 -17 -2 -31.5t-20.5 -21t-28 -7t-27 9t-16.5 26.5q-28 124 -18 331q-45 -75 -101 -145.5t-129.5 -135t-145.5 -98.5t-150.5 -25t-143.5 73q-53 52 -72 121.5t-10.5 137t36 149.5 t58.5 146.5t66.5 140.5t50.5 120q51 166 0.5 285t-158 182t-223.5 53q-114 -11 -197.5 -73.5t-114.5 -151.5t-3 -179q27 -89 94 -131t138 -32.5t120 59.5q16 16 36 14.5t31.5 -15t15 -31.5t-13.5 -36q-53 -53 -129.5 -74t-151 -7.5t-139.5 72t-94 153.5q-21 77 -15.5 150z M742.5 1571q-7.5 17 5.5 47q48 94 57 106q18 24 45.5 19.5t38.5 -27t-4 -49.5q-17 -20 -35 -43q-23 -33 -49 -59q-12 -15 -31.5 -13t-27 19z" />
<glyph unicode="&#xdb;" horiz-adv-x="1001" d="M-509.5 1123q5.5 73 40.5 138t88.5 115.5t128 83.5t158.5 41q144 14 279.5 -65t200 -227t-0.5 -355q-13 -38 -53 -121t-73 -158.5t-59.5 -160t-19.5 -157t53 -118.5q60 -59 130.5 -46t140 66t132.5 130.5t106 147.5t61 116q39 100 107.5 296t117.5 342l49 146 q9 28 36 32.5t46 -14.5t10 -48q-188 -549 -190 -551q-35 -107 -47 -323.5t16 -338.5q5 -17 -2 -31.5t-20.5 -21t-28 -7t-27 9t-16.5 26.5q-28 124 -18 331q-45 -75 -101 -145.5t-129.5 -135t-145.5 -98.5t-150.5 -25t-143.5 73q-53 52 -72 121.5t-10.5 137t36 149.5 t58.5 146.5t66.5 140.5t50.5 120q51 166 0.5 285t-158 182t-223.5 53q-114 -11 -197.5 -73.5t-114.5 -151.5t-3 -179q27 -89 94 -131t138 -32.5t120 59.5q16 16 36 14.5t31.5 -15t15 -31.5t-13.5 -36q-53 -53 -129.5 -74t-151 -7.5t-139.5 72t-94 153.5q-21 77 -15.5 150z M539.5 1501q-2.5 25 19.5 45q114 80 135 80q15 0 43 -17t58.5 -39.5t31.5 -23.5q25 -17 20.5 -45.5t-27 -38.5t-48.5 6q-68 52 -78 60q-6 -4 -35 -26.5t-45 -33.5q-24 -18 -48 -5t-26.5 38z" />
<glyph unicode="&#xdc;" horiz-adv-x="1001" d="M-509.5 1123q5.5 73 40.5 138t88.5 115.5t128 83.5t158.5 41q144 14 279.5 -65t200 -227t-0.5 -355q-13 -38 -53 -121t-73 -158.5t-59.5 -160t-19.5 -157t53 -118.5q60 -59 130.5 -46t140 66t132.5 130.5t106 147.5t61 116q39 100 107.5 296t117.5 342l49 146 q9 28 36 32.5t46 -14.5t10 -48q-188 -549 -190 -551q-35 -107 -47 -323.5t16 -338.5q5 -17 -2 -31.5t-20.5 -21t-28 -7t-27 9t-16.5 26.5q-28 124 -18 331q-45 -75 -101 -145.5t-129.5 -135t-145.5 -98.5t-150.5 -25t-143.5 73q-53 52 -72 121.5t-10.5 137t36 149.5 t58.5 146.5t66.5 140.5t50.5 120q51 166 0.5 285t-158 182t-223.5 53q-114 -11 -197.5 -73.5t-114.5 -151.5t-3 -179q27 -89 94 -131t138 -32.5t120 59.5q16 16 36 14.5t31.5 -15t15 -31.5t-13.5 -36q-53 -53 -129.5 -74t-151 -7.5t-139.5 72t-94 153.5q-21 77 -15.5 150z M612 1409q-8 33 19 55q17 13 41 13q28 0 38.5 -25.5t-4 -51.5t-47.5 -26q-39 0 -47 35zM798.5 1400q-12.5 26 4 51.5t53.5 25.5q28 0 39 -25.5t-3.5 -51.5t-47.5 -26t-45.5 26z" />
<glyph unicode="&#xdd;" horiz-adv-x="913" d="M-380 1092q1 59 16.5 117.5t44.5 105.5q37 61 90 103.5t112 62t125 23t127.5 -15t119 -51.5t100.5 -86t72.5 -119.5t34 -151t-15.5 -181.5q-22 -99 -58 -198.5t-100 -249t-81 -191.5q-2 -5 -12 -31.5t-14 -37.5t-13 -38t-10.5 -41.5t-5 -38.5t0.5 -39t10.5 -33t20 -30.5 t33.5 -21.5q19 -9 44.5 -9t57 8t68 27.5t76 48.5t83 72.5t87.5 97t89.5 125t89.5 154t88 186t83 218.5q5 19 27 30q15 6 34 0q23 -14 27 -24q8 -15 4 -37q-44 -136 -472 -1628.5t-445 -1625.5q-4 -30 -29 -39t-47.5 6t-18.5 45q14 130 469 1720q54 187 148.5 511.5 t126.5 436.5q-163 -254 -335 -361t-296 -50q-44 20 -71 53t-37.5 68.5t-8.5 83t11.5 88.5t27.5 93t33.5 88.5t36 83.5t29.5 70q10 25 34.5 84.5t40.5 99t38 103t33.5 110t19 106t3 105.5t-21.5 93.5t-49 83.5q-69 78 -151.5 110.5t-155 21t-132.5 -49t-94 -92.5 q-39 -65 -47 -134.5t12.5 -123t68.5 -87t114 -30.5q30 1 43 -22t2 -47.5t-41 -26.5q-76 -3 -134.5 21t-92 66t-51 97.5t-16.5 114.5zM776 1147q-8 17 6 47q5 8 18 33.5t23.5 44t16.5 26.5q11 15 26.5 19.5t28.5 -1.5t23 -16.5t10 -26t-10 -30.5q-15 -20 -33 -43 q-22 -32 -49 -61q-12 -14 -32 -11.5t-28 19.5z" />
<glyph unicode="&#xde;" horiz-adv-x="552" />
<glyph unicode="&#xdf;" horiz-adv-x="546" d="M4.5 387.5q-0.5 92.5 5.5 165.5q4 64 9.5 112t19 132t38.5 141.5t61 112t93 74t129 -0.5q103 -28 143 -101.5t11 -162.5q-22 -66 -77 -128t-134 -107q215 -173 215 -344q0 -80 -24.5 -141t-64.5 -93.5t-87.5 -45.5t-97 -1.5t-90.5 43.5q-15 12 -18.5 28t2.5 29t17 22 t27 9t31 -12q22 -16 49 -23t55.5 -1t52.5 25.5t39 61t15 99.5q0 97 -121 210q-18 18 -55 49q-70 61 -82 85q-17 33 27 51q90 38 150 96.5t79 116.5q35 109 -86 143q-132 35 -190 -190q-70 -272 -23 -897q4 -30 -19.5 -45t-48.5 -5.5t-26 39.5q-2 15 -4.5 40.5t-8 101 t-8.5 147.5t-3.5 164.5z" />
<glyph unicode="&#xe0;" horiz-adv-x="827" d="M2.5 250q-14.5 -81 36.5 -162q39 -59 106 -82t135.5 -8t118.5 61q25 25 39 50q37 -45 91 -75t115.5 -39.5t129 15.5t123.5 86q13 13 14.5 29t-7 27.5t-21 19t-28.5 5.5t-28 -15q-44 -49 -96 -65t-96 -3.5t-81 38t-57.5 57.5t-19.5 57q3 46 -19.5 93t-60.5 77 q-76 57 -162 48.5t-153 -71.5q-65 -62 -79.5 -143zM98.5 234q8.5 50 51.5 90q42 41 94.5 46t91.5 -28q45 -36 44 -101.5t-48 -109.5q-47 -46 -114 -42t-99 54q-29 41 -20.5 91zM130 712.5q13 24.5 38.5 27.5t46.5 -19q13 -21 57 -107q21 -40 -5 -60q-21 -15 -41 0l-7 7 q-27 27 -51 57l-33 46q-18 24 -5 48.5z" />
<glyph unicode="&#xe1;" horiz-adv-x="827" d="M2.5 250q14.5 81 79.5 143q67 63 153 71.5t162 -48.5q38 -30 60.5 -77t19.5 -93q-1 -25 19.5 -57t57.5 -57.5t81 -38t96 3.5t96 65q20 21 47 13t34.5 -31t-11.5 -48q-56 -61 -123.5 -86t-129 -15.5t-115.5 39.5t-91 75q-14 -25 -39 -50q-50 -46 -118.5 -61t-135.5 8 t-106 82q-51 81 -36.5 162zM98.5 234q-8.5 -50 20.5 -91q32 -50 99 -54t114 42q47 44 48 109.5t-44 101.5q-39 33 -91.5 28t-94.5 -46q-43 -40 -51.5 -90zM272 596q2 9 7 18q44 86 57 107q11 15 27 19t29.5 -2t23.5 -17t10 -26.5t-10 -30.5q-15 -21 -33 -46q-24 -30 -51 -57 q-16 -21 -41 -11q-27 12 -19 46z" />
<glyph unicode="&#xe2;" horiz-adv-x="827" d="M2.5 250q14.5 81 79.5 143q67 63 153 71.5t162 -48.5q38 -30 60.5 -77t19.5 -93q-1 -25 19.5 -57t57.5 -57.5t81 -38t96 3.5t96 65q20 21 47 13t34.5 -31t-11.5 -48q-56 -61 -123.5 -86t-129 -15.5t-115.5 39.5t-91 75q-14 -25 -39 -50q-50 -46 -118.5 -61t-135.5 8 t-106 82q-51 81 -36.5 162zM96 588q-2 25 21 45q103 80 133 80q8 0 20.5 -5.5t24.5 -12.5t28 -18t25.5 -18t21.5 -17l13 -9q15 -11 19.5 -26.5t-1.5 -28.5t-16.5 -23.5t-26 -11t-30.5 9.5q-68 51 -78 61q-18 -17 -78 -61q-25 -17 -49.5 -3.5t-26.5 38.5zM98.5 234 q-8.5 -50 20.5 -91q32 -50 99 -54t114 42q47 44 48 109.5t-44 101.5q-39 33 -91.5 28t-94.5 -46q-43 -40 -51.5 -90z" />
<glyph unicode="&#xe3;" horiz-adv-x="827" d="M2.5 250q14.5 81 79.5 143q67 63 153 71.5t162 -48.5q38 -30 60.5 -77t19.5 -93q-1 -25 19.5 -57t57.5 -57.5t81 -38t96 3.5t96 65q20 21 47 13t34.5 -31t-11.5 -48q-56 -61 -123.5 -86t-129 -15.5t-115.5 39.5t-91 75q-14 -25 -39 -50q-50 -46 -118.5 -61t-135.5 8 t-106 82q-51 81 -36.5 162zM66.5 594q11.5 25 42.5 27q20 1 81 4t89 3.5t75 -4t88 -16.5q29 -8 34.5 -34t-13 -46t-47.5 -12q-35 10 -79.5 13t-66 3t-86 -5t-71.5 -5q-30 -1 -44 23t-2.5 49zM98.5 234q-8.5 -50 20.5 -91q32 -50 99 -54t114 42q47 44 48 109.5t-44 101.5 q-39 33 -91.5 28t-94.5 -46q-43 -40 -51.5 -90z" />
<glyph unicode="&#xe4;" horiz-adv-x="827" d="M2.5 250q14.5 81 79.5 143q67 63 153 71.5t162 -48.5q38 -30 60.5 -77t19.5 -93q-1 -25 19.5 -57t57.5 -57.5t81 -38t96 3.5t96 65q20 21 47 13t34.5 -31t-11.5 -48q-56 -61 -123.5 -86t-129 -15.5t-115.5 39.5t-91 75q-14 -25 -39 -50q-50 -46 -118.5 -61t-135.5 8 t-106 82q-51 81 -36.5 162zM98.5 234q-8.5 -50 20.5 -91q32 -50 99 -54t114 42q47 44 48 109.5t-44 101.5q-39 33 -91.5 28t-94.5 -46q-43 -40 -51.5 -90zM115.5 569q-12.5 26 4 52t52.5 26q29 0 40 -26t-3.5 -52t-46.5 -26q-34 0 -46.5 26zM300 569q-12 26 4 52t52 26 q28 0 39 -26t-3 -52t-48 -26q-32 0 -44 26z" />
<glyph unicode="&#xe5;" horiz-adv-x="827" d="M2.5 250q14.5 81 79.5 143q67 63 153 71.5t162 -48.5q38 -30 60.5 -77t19.5 -93q-1 -25 19.5 -57t57.5 -57.5t81 -38t96 3.5t96 65q20 21 47 13t34.5 -31t-11.5 -48q-56 -61 -123.5 -86t-129 -15.5t-115.5 39.5t-91 75q-14 -25 -39 -50q-50 -46 -118.5 -61t-135.5 8 t-106 82q-51 81 -36.5 162zM98.5 234q-8.5 -50 20.5 -91q32 -50 99 -54t114 42q47 44 48 109.5t-44 101.5q-39 33 -91.5 28t-94.5 -46q-43 -40 -51.5 -90zM131 659q0 48 35 82.5t84 34.5q47 0 82 -35t35 -82q0 -49 -34.5 -83.5t-82.5 -34.5q-50 0 -84.5 34.5t-34.5 83.5z M227 659q0 -9 7 -15.5t16 -6.5q8 0 14 6.5t6 15.5q0 8 -6.5 14.5t-13.5 6.5q-9 0 -16 -6.5t-7 -14.5z" />
<glyph unicode="&#xe6;" horiz-adv-x="1230" />
<glyph unicode="&#xe7;" horiz-adv-x="569" d="M-2 197q-5 62 18 118.5t66 93t95.5 54.5t111.5 7t108 -52q14 -11 17.5 -26.5t-3.5 -28.5t-18 -22t-27 -9t-30 12q-36 29 -81 31t-81.5 -17.5t-59.5 -60.5t-18 -90q4 -56 61.5 -97.5t137.5 -50.5l8 54q2 18 13 29.5t25 13t28 -3t22 -17.5t6 -31l-4 -41q102 17 176 99 q12 13 27.5 15.5t27.5 -5t21 -19.5t8.5 -28t-12.5 -29q-92 -105 -258 -129l-2 -14l-10 -111q-3 -31 -28.5 -41.5t-48 4.5t-18.5 45l7 99l2 14q-115 8 -196 68.5t-91 165.5z" />
<glyph unicode="&#xe8;" horiz-adv-x="405" d="M-127 365q1 -96 55 -183.5t142 -139.5t184 -52q125 0 221 106q20 22 10.5 48t-33 31.5t-46.5 -13.5q-67 -76 -152 -76q-81 0 -154 49q67 102 72 213q4 109 -72 156.5t-152.5 6.5t-74.5 -146zM-109.5 734q12.5 24 38 26.5t46.5 -19.5q7 -11 28.5 -52.5t27.5 -51.5 q15 -28 6 -47.5t-27.5 -19.5t-32.5 12q-7 9 -23.5 27.5t-25.5 31.5l-32 45q-18 24 -5.5 48zM-29 389q13 38 46 42q35 4 50 -33q8 -19 7 -46q0 -73 -41 -147h-2q-85 111 -60 184z" />
<glyph unicode="&#xe9;" horiz-adv-x="405" d="M-127 365q-2 105 74.5 146t152.5 -6.5t72 -156.5q-5 -111 -72 -213q73 -49 154 -49q85 0 152 76q20 21 46.5 13t33.5 -31t-11 -48q-96 -106 -221 -106q-96 0 -184 52t-142 139.5t-55 183.5zM-17 284q17 -38 48 -79h2q41 74 41 147q2 61 -36 76q-31 12 -54 -16 q-37 -45 -1 -128zM-4 613q2 11 8 22q5 9 17.5 34t23 43.5t16.5 26.5q11 15 26.5 19.5t28.5 -1.5t23 -16.5t10 -26t-10 -30.5q-15 -20 -33 -45q-5 -6 -22 -25.5t-27 -33.5q-15 -20 -40 -10q-28 11 -21 43z" />
<glyph unicode="&#xea;" horiz-adv-x="405" d="M-140.5 596q-2.5 25 19.5 45q4 3 37 25.5t60 38.5t38 16t33 -11.5t40 -23.5t39.5 -27.5t23.5 -17.5q15 -11 18.5 -26.5t-2.5 -29t-17 -23.5t-26.5 -10t-30.5 11q-68 52 -78 60q-65 -52 -77 -60q-25 -18 -50 -5t-27.5 38zM-127 365q-2 105 74.5 146t152.5 -6.5t72 -156.5 q-5 -111 -72 -213q73 -49 154 -49q85 0 152 76q20 21 46.5 13t33.5 -31t-11 -48q-96 -106 -221 -106q-96 0 -184 52t-142 139.5t-55 183.5zM-17 284q17 -38 48 -79h2q41 74 41 147q2 61 -36 76q-31 12 -54 -16q-37 -45 -1 -128z" />
<glyph unicode="&#xeb;" horiz-adv-x="405" d="M-127 365q-2 105 74.5 146t152.5 -6.5t72 -156.5q-5 -111 -72 -213q73 -49 154 -49q85 0 152 76q20 21 46.5 13t33.5 -31t-11 -48q-96 -106 -221 -106q-96 0 -184 52t-142 139.5t-55 183.5zM-123.5 571q-12.5 26 3.5 52t52 26q29 0 40 -26t-3 -52t-47 -26t-45.5 26z M-17 284q17 -38 48 -79h2q41 74 41 147q2 61 -36 76q-31 12 -54 -16q-37 -45 -1 -128zM59 579q-8 34 19 56q16 14 41 14q28 0 38.5 -26t-4 -52t-47.5 -26q-39 0 -47 34z" />
<glyph unicode="&#xec;" horiz-adv-x="362" d="M-68 694.5q0 15.5 10.5 26.5t23.5 17t28 2t26 -19q27 -39 58 -107q15 -27 6.5 -46.5t-27 -19.5t-32.5 13q-6 6 -23.5 25.5t-26.5 31.5l-32 46q-11 15 -11 30.5zM6 385q-23 -139 10 -242q25 -76 77 -115t112 -39.5t121.5 27.5t109.5 80q19 22 9 48t-34.5 31.5t-48.5 -13.5 q-64 -76 -147 -76q-47 1 -76 32t-37 79.5t-8 91.5t6 82q3 18 -4.5 32t-21 19t-27.5 4.5t-26 -11.5t-15 -30z" />
<glyph unicode="&#xed;" horiz-adv-x="362" d="M6 385q3 19 15 30t26 11.5t27.5 -4.5t21 -19t4.5 -32q-6 -39 -6 -82t8 -91.5t37 -79.5t76 -32q83 0 147 76q21 21 48 13t35 -31t-9 -48q-48 -52 -109.5 -80t-121.5 -27.5t-112 39.5t-77 115q-33 103 -10 242zM66 567q-7 17 8 47q28 62 55 107q11 15 26.5 19t28.5 -2 t23 -17t10 -26.5t-10 -30.5q-15 -21 -31 -46q-42 -47 -51 -57q-12 -15 -32 -13t-27 19z" />
<glyph unicode="&#xee;" horiz-adv-x="362" d="M-91 588q-2 25 21 45q103 80 133 80q27 0 134 -80q15 -11 19.5 -26.5t-1.5 -28.5t-17 -23.5t-26.5 -11t-30.5 9.5q-68 51 -78 61q-22 -20 -77 -61q-25 -17 -50 -3.5t-27 38.5zM6 385q3 19 15 30t26 11.5t27.5 -4.5t21 -19t4.5 -32q-6 -39 -6 -82t8 -91.5t37 -79.5t76 -32 q83 0 147 76q21 21 48 13t35 -31t-9 -48q-48 -52 -109.5 -80t-121.5 -27.5t-112 39.5t-77 115q-33 103 -10 242z" />
<glyph unicode="&#xef;" horiz-adv-x="362" d="M-57.5 554q-12.5 26 4 52.5t53.5 26.5q28 0 39 -26.5t-3.5 -52.5t-47.5 -26t-45.5 26zM6 385q3 19 15 30t26 11.5t27.5 -4.5t21 -19t4.5 -32q-6 -39 -6 -82t8 -91.5t37 -79.5t76 -32q83 0 147 76q21 21 48 13t35 -31t-9 -48q-48 -52 -109.5 -80t-121.5 -27.5t-112 39.5 t-77 115q-33 103 -10 242zM127 554q-12 26 4.5 52.5t52.5 26.5q28 0 39 -26.5t-3.5 -52.5t-47.5 -26t-45 26z" />
<glyph unicode="&#xf0;" horiz-adv-x="733" d="M9 250q31 104 145 176l30 16q26 16 47.5 -0.5t21 -44.5t-27.5 -41q-101 -47 -124 -134q-17 -66 18 -109q35 -44 93 -18q47 22 93 91l12 21q-42 140 -18 358q-8 -3 -18 -7.5t-16.5 -7t-8.5 -3.5q-27 -9 -45 10.5t-13.5 47t33.5 40.5q30 10 39 14q1 0 10 4t20.5 8t21.5 7 q23 102 59 174t84.5 105t103.5 -1q65 -39 62 -153l10 4q28 12 48.5 -5.5t18.5 -44.5t-30 -40q-27 -11 -60 -25q-45 -213 -194 -493q52 -113 158 -113q84 3 151 76q21 21 48 13t34.5 -31t-10.5 -48q-74 -83 -174.5 -101.5t-194.5 34.5q-45 26 -74 71q-94 -120 -201 -110 q-80 8 -127 80q-53 82 -25 180zM389 342q71 143 119 307l-105 -43q-23 -139 -14 -264zM432 723q14 5 47.5 19.5t50.5 19.5q5 30 5 31q2 28 -1.5 47t-7 24.5t-6.5 7.5q-23 -8 -47 -48t-41 -101z" />
<glyph unicode="&#xf1;" horiz-adv-x="1161" d="M-9.5 114.5q-7.5 23.5 11.5 47.5q30 31 75.5 88.5t67.5 79.5q47 44 111 60t120.5 -2t82.5 -66q79 62 168.5 46t156.5 -104q9 -12 28.5 -38.5t30.5 -41.5t31.5 -35.5t38 -31.5t42.5 -19t53 -8q87 0 153 72q20 21 47 13t35 -31t-10 -48q-106 -112 -235 -104t-226 127 q-3 4 -31 42.5t-48 61.5t-38 33q-87 47 -166 -37q2 -25 2 -54.5t-1 -63t-1 -48.5q0 -31 -24.5 -43.5t-48.5 1t-23 44.5q0 8 0.5 28t0.5 38.5t-1 34.5q-7 61 -31 101t-65 40q-29 0 -61 -22.5t-55 -49.5t-56.5 -68t-52.5 -61q-20 -22 -47 -13.5t-34.5 32zM282.5 540 q11.5 25 41.5 27q24 1 81.5 4.5t87.5 4t76 -3.5t86 -15q30 -9 36 -35.5t-12 -46.5t-48 -12q-29 8 -58.5 12t-63.5 3.5t-56.5 -1.5t-64 -4t-58.5 -4q-31 -1 -45 22.5t-2.5 48.5z" />
<glyph unicode="&#xf2;" horiz-adv-x="608" d="M2 203q2 -70 35.5 -119t83 -70t107 -19.5t106.5 25t82.5 71.5t34.5 112q65 1 110 21.5t109 70.5q24 18 18 45.5t-29.5 37t-48.5 -6.5q-53 -43 -87.5 -57.5t-94.5 -14.5q-33 67 -102 102.5t-142 22.5q-81 -15 -133 -76.5t-49 -144.5zM97 713q13 25 38 27.5t45 -19.5 q11 -15 58 -107q15 -27 6 -46.5t-27.5 -19.5t-32.5 13q-17 17 -49 57l-33 46q-18 24 -5 49zM98 205q-1 47 28 81.5t77 43.5q55 10 102 -28.5t47 -92.5q2 -56 -48 -94t-107 -25q-46 10 -71.5 40.5t-27.5 74.5z" />
<glyph unicode="&#xf3;" horiz-adv-x="608" d="M2 203q-3 83 49 144.5t133 76.5q73 13 142 -22.5t102 -102.5q60 0 94.5 14.5t87.5 57.5q23 18 48.5 6t29.5 -36.5t-18 -45.5q-64 -50 -109 -70.5t-110 -21.5q-1 -64 -34.5 -112t-82.5 -71.5t-106.5 -25t-107 19.5t-83 70t-35.5 119zM98 205q2 -44 27.5 -74.5t71.5 -40.5 q57 -13 107 25t48 94q0 54 -47 92.5t-102 28.5q-48 -9 -77 -43.5t-28 -81.5zM206.5 567q-7.5 17 6.5 47q50 97 57 107q11 15 26.5 19t28.5 -2t23 -17t10 -26.5t-10 -30.5q-15 -21 -31 -46q-42 -47 -51 -57q-12 -15 -32 -13t-27.5 19z" />
<glyph unicode="&#xf4;" horiz-adv-x="608" d="M2 203q-3 83 49 144.5t133 76.5q73 13 142 -22.5t102 -102.5q60 0 94.5 14.5t87.5 57.5q23 18 48.5 6t29.5 -36.5t-18 -45.5q-64 -50 -109 -70.5t-110 -21.5q-1 -64 -34.5 -112t-82.5 -71.5t-106.5 -25t-107 19.5t-83 70t-35.5 119zM70.5 588q-2.5 25 19.5 45 q4 3 36.5 25.5t59.5 38.5t39 16q8 0 20.5 -5.5t24.5 -12.5t28 -18t25.5 -18t22.5 -17l12 -9q15 -11 19.5 -26.5t-1.5 -28.5t-16.5 -23.5t-26 -11t-30.5 9.5q-68 51 -78 61q-16 -13 -80 -61q-24 -17 -48 -3.5t-26.5 38.5zM98 205q2 -44 27.5 -74.5t71.5 -40.5q57 -13 107 25 t48 94q0 54 -47 92.5t-102 28.5q-48 -9 -77 -43.5t-28 -81.5z" />
<glyph unicode="&#xf5;" horiz-adv-x="608" d="M2 203q-3 83 49 144.5t133 76.5q73 13 142 -22.5t102 -102.5q60 0 94.5 14.5t87.5 57.5q23 18 48.5 6t29.5 -36.5t-18 -45.5q-64 -50 -109 -70.5t-110 -21.5q-1 -64 -34.5 -112t-82.5 -71.5t-106.5 -25t-107 19.5t-83 70t-35.5 119zM17 594q11 25 42 27q21 1 82 4t89 3.5 t75 -4t88 -16.5q29 -8 34.5 -34t-12.5 -46t-48 -12q-28 8 -57.5 12t-64 3.5t-57 -1.5t-64 -4t-58.5 -4q-31 -1 -45.5 23t-3.5 49zM98 205q2 -44 27.5 -74.5t71.5 -40.5q57 -13 107 25t48 94q0 54 -47 92.5t-102 28.5q-48 -9 -77 -43.5t-28 -81.5z" />
<glyph unicode="&#xf6;" horiz-adv-x="610" d="M2 203q-3 83 49 144.5t133 76.5q73 13 142 -22.5t102 -102.5q60 0 94.5 14.5t87.5 57.5q23 18 48.5 6t29.5 -36.5t-18 -45.5q-64 -50 -109 -70.5t-110 -21.5q-1 -64 -34.5 -112t-82.5 -71.5t-106.5 -25t-107 19.5t-83 70t-35.5 119zM75.5 522q-12.5 26 3.5 52t52 26 q29 0 40 -26t-3 -52t-47 -26t-45.5 26zM98 205q2 -44 27.5 -74.5t71.5 -40.5q57 -13 107 25t48 94q0 54 -47 92.5t-102 28.5q-48 -9 -77 -43.5t-28 -81.5zM260 522q-12 26 4.5 52t52.5 26q28 0 39 -26t-3.5 -52t-47.5 -26t-45 26z" />
<glyph unicode="&#xf7;" d="M6.5 244q-10.5 24 3.5 48t47 25q15 1 127.5 -1.5t114.5 -2.5q30 2 43 -21.5t2 -48t-41 -24.5h-258q-28 1 -38.5 25zM117 158q11 29 37 37.5t53 -11.5q23 -22 13.5 -52t-36.5 -37.5t-57 14.5q-21 20 -10 49zM125 374q-12 26 4.5 51.5t52.5 25.5q28 0 39 -25.5t-3.5 -51.5 t-47.5 -26t-45 26z" />
<glyph unicode="&#xf8;" horiz-adv-x="608" d="M-15.5 -3q-5.5 25 13.5 52l39 37q-35 54 -35 117q-3 83 49 144.5t133 76.5q84 15 162 -33l45 45q20 22 47.5 14t35 -31.5t-10.5 -47.5l-47 -47q2 -4 6 -12.5t6 -12.5q60 0 94.5 14.5t87.5 57.5q23 18 48.5 6t29.5 -36.5t-18 -45.5q-64 -50 -109 -70.5t-110 -21.5 q-1 -65 -36 -114.5t-86 -71.5t-110 -22t-108 25l-50 -49q-21 -20 -46 -9.5t-30.5 35.5zM98 205q0 -21 11 -47l163 164q-35 14 -69 8q-49 -9 -78 -43.5t-27 -81.5zM184 94q2 -1 6.5 -2t6.5 -2q56 -12 105.5 27t49.5 94q0 17 -8 41q-51 -49 -160 -158z" />
<glyph unicode="&#xf9;" horiz-adv-x="784" d="M2 367q0 -146 4 -203q5 -75 53 -118.5t109.5 -48.5t126.5 24.5t102 87.5q37 -45 90.5 -75t115 -39.5t128.5 15.5t123 86q13 13 14.5 29t-7 27.5t-21 19t-28.5 5.5t-28 -15q-80 -80 -156.5 -73.5t-132.5 54.5t-59 95q1 41 0 77.5t-2 52.5l-2 17q-1 31 -26 41t-49 -5.5 t-21 -45.5q4 -34 5 -60t-0.5 -61t-11 -61t-25 -49.5t-44 -36.5t-67.5 -13q-45 -1 -66.5 16.5t-24.5 59.5q-1 20 -1.5 66.5t-1.5 84t-3 52.5q-1 18 -11.5 30t-24.5 14t-27.5 -1.5t-22.5 -16.5t-8 -32zM69 713q13 25 38 27.5t45 -19.5q19 -27 55 -107q16 -27 8 -46.5 t-26.5 -19.5t-32.5 13q-11 13 -28.5 31.5t-23.5 25.5l-30 46q-18 24 -5 49z" />
<glyph unicode="&#xfa;" horiz-adv-x="784" d="M2 367q-1 19 8 32t22.5 16.5t27.5 1.5t24.5 -14t11.5 -30q2 -15 3 -52.5t1.5 -84t1.5 -66.5q3 -42 24.5 -59.5t66.5 -16.5q39 0 67.5 13t44 36.5t25 49.5t11 61t0.5 61t-5 60q-3 30 21 45.5t49 5.5t26 -41q1 -6 2 -18t2 -50t0 -79q3 -47 59 -95t132.5 -54.5t156.5 73.5 q20 21 47 13t34.5 -31t-11.5 -48q-56 -61 -123 -86t-128.5 -15.5t-115 39.5t-90.5 75q-37 -58 -102 -87.5t-126.5 -24.5t-109.5 48.5t-53 118.5q-4 57 -4 203zM171.5 567q-7.5 17 6.5 47q38 74 58 107q17 24 45 19t38 -27.5t-6 -48.5q-14 -21 -30 -46q-6 -7 -23.5 -25.5 t-28.5 -31.5q-12 -15 -32 -13t-27.5 19z" />
<glyph unicode="&#xfb;" horiz-adv-x="784" d="M2 367q-1 19 8 32t22.5 16.5t27.5 1.5t24.5 -14t11.5 -30q2 -15 3 -52.5t1.5 -84t1.5 -66.5q3 -42 24.5 -59.5t66.5 -16.5q39 0 67.5 13t44 36.5t25 49.5t11 61t0.5 61t-5 60q-3 30 21 45.5t49 5.5t26 -41q1 -6 2 -18t2 -50t0 -79q3 -47 59 -95t132.5 -54.5t156.5 73.5 q20 21 47 13t34.5 -31t-11.5 -48q-56 -61 -123 -86t-128.5 -15.5t-115 39.5t-90.5 75q-37 -58 -102 -87.5t-126.5 -24.5t-109.5 48.5t-53 118.5q-4 57 -4 203zM45.5 588q-2.5 25 20.5 45q114 80 133 80q7 0 17.5 -3.5t22 -10.5l23 -14t24 -16t20.5 -15t17.5 -13t10.5 -8 q15 -11 19.5 -26.5t-1.5 -28.5t-16.5 -23.5t-26 -11t-30.5 9.5q-68 51 -80 61q-18 -18 -76 -61q-25 -17 -50 -3.5t-27.5 38.5z" />
<glyph unicode="&#xfc;" horiz-adv-x="784" d="M2 367q-1 19 8 32t22.5 16.5t27.5 1.5t24.5 -14t11.5 -30q2 -15 3 -52.5t1.5 -84t1.5 -66.5q3 -42 24.5 -59.5t66.5 -16.5q39 0 67.5 13t44 36.5t25 49.5t11 61t0.5 61t-5 60q-3 30 21 45.5t49 5.5t26 -41q1 -6 2 -18t2 -50t0 -79q3 -47 59 -95t132.5 -54.5t156.5 73.5 q20 21 47 13t34.5 -31t-11.5 -48q-56 -61 -123 -86t-128.5 -15.5t-115 39.5t-90.5 75q-37 -58 -102 -87.5t-126.5 -24.5t-109.5 48.5t-53 118.5q-4 57 -4 203zM5.5 536q-12.5 26 4 52t53.5 26q28 0 38.5 -26t-4 -52t-46.5 -26q-33 0 -45.5 26zM325.5 536q-12.5 26 4 52 t53.5 26q28 0 38.5 -26t-4 -52t-46.5 -26q-33 0 -45.5 26z" />
<glyph unicode="&#xfd;" horiz-adv-x="684" d="M-1.5 229q1.5 51 19.5 107q9 29 36.5 33.5t46.5 -14.5t10 -48q-38 -120 17 -184q43 -51 114 -35q83 18 139 119q31 54 47 125q-2 26 20.5 41.5t47.5 5t30 -48.5q0 -5 18.5 -105.5t26.5 -181.5q10 -81 11 -102q66 25 120 30q30 4 45.5 -18.5t6 -48t-40.5 -29.5 q-72 -10 -125 -41q7 -195 -25 -321q-56 -222 -163 -293q-73 -48 -135 -5t-69 145q-6 94 42 200q100 223 251 327q-5 114 -26 263q-28 -48 -64.5 -83t-74.5 -52.5t-78 -24.5t-76 2t-68.5 27t-55.5 49.5t-36 70.5t-11.5 90zM259.5 567q-7.5 17 6.5 47q47 92 58 107 q17 24 45 19t38 -27.5t-6 -48.5q-14 -21 -30 -46q-6 -7 -23.5 -25.5t-28.5 -31.5q-12 -15 -32 -13t-27.5 19zM289 -651.5q3 -36.5 22 -48.5l17 -1q61 9 109 135q17 45 32 103q23 95 23 227q-48 -45 -88.5 -104.5t-65.5 -116t-38.5 -107.5t-10.5 -87.5z" />
<glyph unicode="&#xfe;" horiz-adv-x="155" />
<glyph unicode="&#xff;" horiz-adv-x="684" d="M-1.5 229q1.5 51 19.5 107q9 29 36.5 33.5t46.5 -14.5t10 -48q-38 -120 17 -184q43 -51 114 -35q83 18 139 119q31 54 47 125q-2 26 20.5 41.5t47.5 5t30 -48.5q0 -5 18.5 -105.5t26.5 -181.5q10 -81 11 -102q66 25 120 30q30 4 45.5 -18.5t6 -48t-40.5 -29.5 q-72 -10 -125 -41q7 -195 -25 -321q-56 -222 -163 -293q-73 -48 -135 -5t-69 145q-6 94 42 200q100 223 251 327q-5 114 -26 263q-28 -48 -64.5 -83t-74.5 -52.5t-78 -24.5t-76 2t-68.5 27t-55.5 49.5t-36 70.5t-11.5 90zM132.5 522q-12.5 26 3.5 52t52 26q29 0 40 -26 t-3 -52t-47 -26t-45.5 26zM289 -651.5q3 -36.5 22 -48.5l17 -1q61 9 109 135q17 45 32 103q23 95 23 227q-48 -45 -88.5 -104.5t-65.5 -116t-38.5 -107.5t-10.5 -87.5zM315 530q-8 34 19 56q16 14 41 14q28 0 38.5 -26t-4 -52t-47.5 -26q-39 0 -47 34z" />
<glyph unicode="&#x178;" horiz-adv-x="1355" d="M-0.5 1092q1.5 59 17 117.5t44.5 105.5q37 61 90 103.5t112 62t124.5 23t127 -15t119 -51.5t100.5 -86t72.5 -119.5t34 -151t-15.5 -181.5q-22 -99 -59 -201t-97.5 -244t-80.5 -194q-2 -5 -12 -31.5t-14 -37.5t-13 -38t-10.5 -41.5t-5 -38.5t0.5 -39t10.5 -33t20 -30.5 t33.5 -21.5q19 -9 44.5 -9.5t57.5 7t68 26.5t75 47.5t79 72.5t79.5 98t77 127t70 157.5t60.5 192t48 227.5q3 21 23 35q15 9 35 6t31 -18q8 -10 8 -37l-22 -190q-23 -190 -55.5 -464.5t-73 -622t-79 -691.5t-71 -642t-51.5 -503t-17 -248q1 -30 -22.5 -43t-48 -2t-25.5 41 q-7 129 180 1775q19 166 50.5 425t55.5 450t25 192q-40 -87 -88 -162.5t-96.5 -132t-100 -100t-100.5 -70t-96 -39.5t-88.5 -11t-75.5 18q-44 20 -71 53t-37.5 68.5t-8.5 83t11 88.5t27 93t33.5 88t36 84t29.5 70q10 24 35.5 84.5t41 99t38 102.5t33.5 110.5t19.5 106 t3.5 105.5t-22.5 93.5t-49.5 83.5q-69 78 -151.5 110.5t-154.5 21t-132 -49t-93 -92.5q-39 -65 -47 -134.5t11.5 -123t67.5 -87t114 -30.5q31 1 45 -22t2 -47.5t-43 -26.5q-76 -3 -134.5 21t-91.5 66t-51 97.5t-16.5 114.5zM1041 1221.5q-9 33.5 19 55.5q16 13 40 13 q29 0 40 -25.5t-4 -51t-49 -25.5q-37 0 -46 33.5zM1227 1221q-9 33 17 55q17 14 42 14q28 0 39 -25.5t-3.5 -51t-47.5 -25.5q-38 0 -47 33z" />
<glyph unicode="&#x2c6;" horiz-adv-x="552" d="M96 588q-2 25 21 45q103 80 133 80q8 0 20.5 -5.5t24.5 -12.5t28 -18t25.5 -18t21.5 -17l13 -9q15 -11 19.5 -26.5t-1.5 -28.5t-16.5 -23.5t-26 -11t-30.5 9.5q-68 51 -78 61q-18 -17 -78 -61q-25 -17 -49.5 -3.5t-26.5 38.5z" />
<glyph unicode="&#x2dc;" horiz-adv-x="514" d="M62 516q-1 18 11.5 34t35.5 17q24 1 81 4.5t87 4t76.5 -3.5t86.5 -15q30 -8 35.5 -35t-12.5 -47t-47 -12t-58.5 12t-64 3.5t-57 -1.5t-64 -4t-59.5 -4q-22 -1 -36 14t-15 33z" />
<glyph unicode="&#x2000;" horiz-adv-x="902" />
<glyph unicode="&#x2001;" horiz-adv-x="1804" />
<glyph unicode="&#x2002;" horiz-adv-x="902" />
<glyph unicode="&#x2003;" horiz-adv-x="1804" />
<glyph unicode="&#x2004;" horiz-adv-x="601" />
<glyph unicode="&#x2005;" horiz-adv-x="451" />
<glyph unicode="&#x2006;" horiz-adv-x="300" />
<glyph unicode="&#x2007;" horiz-adv-x="300" />
<glyph unicode="&#x2008;" horiz-adv-x="225" />
<glyph unicode="&#x2009;" horiz-adv-x="360" />
<glyph unicode="&#x200a;" horiz-adv-x="100" />
<glyph unicode="&#x2010;" d="M6.5 244q-10.5 24 3.5 48t47 25q15 1 127.5 -1.5t114.5 -2.5q30 2 43 -21.5t2 -48t-41 -24.5h-258q-28 1 -38.5 25z" />
<glyph unicode="&#x2011;" d="M6.5 244q-10.5 24 3.5 48t47 25q15 1 127.5 -1.5t114.5 -2.5q30 2 43 -21.5t2 -48t-41 -24.5h-258q-28 1 -38.5 25z" />
<glyph unicode="&#x2012;" d="M6.5 244q-10.5 24 3.5 48t47 25q15 1 127.5 -1.5t114.5 -2.5q30 2 43 -21.5t2 -48t-41 -24.5h-258q-28 1 -38.5 25z" />
<glyph unicode="&#x2013;" horiz-adv-x="450" d="M6.5 244q-10.5 24 3.5 48t47 25q11 1 89 0t159.5 -2.5t87.5 -1.5q31 2 45 -21.5t2 -48t-43 -24.5h-352q-28 1 -38.5 25z" />
<glyph unicode="&#x2014;" horiz-adv-x="663" d="M6.5 244q-10.5 24 3.5 48t47 25q11 1 141.5 0t267 -2.5t140.5 -1.5q31 2 45 -21.5t2 -48t-43 -24.5h-565q-28 1 -38.5 25z" />
<glyph unicode="&#x2018;" horiz-adv-x="143" d="M-3 935q2 15 14 25t26 14t29 -2t24 -22q1 -2 41 -112q12 -28 1 -46t-29.5 -16t-30.5 15q-7 14 -21 33t-20 32l-27 47q-9 17 -7 32z" />
<glyph unicode="&#x2019;" horiz-adv-x="143" d="M3.5 791.5q-9.5 15.5 0.5 46.5q35 95 43 112q9 16 24 22t28.5 2t25 -14t13.5 -25t-7 -32q-13 -20 -27 -47q-8 -14 -21.5 -34.5t-19.5 -30.5q-10 -15 -30 -15t-29.5 15.5z" />
<glyph unicode="&#x201c;" horiz-adv-x="288" d="M-3 935q2 15 14 25t26 14t29 -2t24 -22q1 -2 41 -112q12 -28 1 -46t-29.5 -16t-30.5 15q-7 14 -21 33t-20 32l-27 47q-9 17 -7 32zM141 942q8 17 23 26.5t34.5 5.5t30.5 -24q6 -10 43 -112q18 -41 -11 -58q-22 -12 -40 4q-4 3 -6 7q-8 13 -21.5 32.5t-21.5 32.5l-27 47 q-12 22 -4 39z" />
<glyph unicode="&#x201d;" horiz-adv-x="288" d="M1.5 791.5q-9.5 15.5 0.5 46.5q35 95 43 112q11 20 31 24t35.5 -5.5t23.5 -26.5t-4 -39q-13 -20 -27 -47q-7 -12 -20 -31t-21 -34q-11 -15 -31.5 -15t-30 15.5zM143 792q-12 18 0 46q34 94 45 112q8 16 22.5 22t28.5 2t25.5 -14t13.5 -25t-6 -32q-12 -20 -26 -47 q-8 -14 -43 -65q-11 -13 -29.5 -15t-30.5 16z" />
<glyph unicode="&#x2022;" horiz-adv-x="176" d="M2 162q0 34 25.5 59t60.5 25q34 0 59 -25t25 -59q0 -35 -25 -59.5t-59 -24.5q-35 0 -60.5 24.5t-25.5 59.5z" />
<glyph unicode="&#x2026;" horiz-adv-x="108" d="M-3 51q-1 16 7.5 29.5t21.5 23t30 8.5t32 -14q24 -22 14.5 -52t-36.5 -37.5t-56 14.5q-12 12 -13 28zM147 51q-1 16 8 29.5t22 23t30 8.5t31 -14q24 -22 14.5 -52t-36.5 -37.5t-56 14.5q-12 12 -13 28zM296 51q-1 16 8 29.5t22 23t30 8.5t31 -14q24 -22 14.5 -52 t-36.5 -37.5t-56 14.5q-12 12 -13 28z" />
<glyph unicode="&#x202f;" horiz-adv-x="360" />
<glyph unicode="&#x205f;" horiz-adv-x="451" />
<glyph unicode="&#x20ac;" horiz-adv-x="1478" d="M15 577q-13 24 0 48t44 24l148 4q-6 71 0 148h-125q-31 0 -44 23.5t0 47.5t44 25h133q43 260 227 407t449 150q88 0 184.5 -16.5t198 -60t156.5 -105.5q12 -13 13 -29t-7.5 -27.5t-21 -19t-28.5 -4.5t-28 16q-9 9 -23 21q-85 68 -203 98.5t-241 28.5 q-123 -1 -224.5 -37.5t-171 -100.5t-115 -144t-67.5 -175h817q31 0 44 -24t0 -48t-44 -24l-831 -2q-6 -74 0 -148l791 6q19 0 31.5 -10t15.5 -24t0.5 -28t-15 -24t-30.5 -10l-781 -6q25 -115 79 -207t132 -145q71 -46 171.5 -73t201.5 -28.5t191 14.5t150.5 57.5t70.5 100.5 q5 30 30.5 38.5t47.5 -7t16 -45.5q-14 -90 -127.5 -162.5t-273 -89t-322 17t-293 171t-166.5 358.5l-160 -4q-31 0 -44 24z" />
<glyph unicode="&#x2122;" horiz-adv-x="415" />
<glyph unicode="&#xe000;" horiz-adv-x="430" d="M0 0v430h430v-430h-430z" />
</font>
</defs>
</svg>
